<?xml version="1.0" encoding="UTF-8" standalone="no"?>
<!-- Created with Inkscape (http://www.inkscape.org/) -->

<svg
   width="10.16mm"
   height="128.5mm"
   viewBox="0 0 10.16 128.5"
   version="1.1"
   id="svg1"
   inkscape:version="1.3 (0e150ed, 2023-07-21)"
   sodipodi:docname="SimpleMixer.svg"
   xmlns:inkscape="http://www.inkscape.org/namespaces/inkscape"
   xmlns:sodipodi="http://sodipodi.sourceforge.net/DTD/sodipodi-0.dtd"
   xmlns="http://www.w3.org/2000/svg"
   xmlns:svg="http://www.w3.org/2000/svg">
  <sodipodi:namedview
     id="namedview1"
     pagecolor="#505050"
     bordercolor="#eeeeee"
     borderopacity="1"
     inkscape:showpageshadow="0"
     inkscape:pageopacity="0"
     inkscape:pagecheckerboard="0"
     inkscape:deskcolor="#d1d1d1"
     inkscape:document-units="mm"
     showgrid="false"
     inkscape:zoom="1.0497282"
     inkscape:cx="20.957806"
     inkscape:cy="246.73054"
     inkscape:window-width="1288"
     inkscape:window-height="803"
     inkscape:window-x="42"
     inkscape:window-y="38"
     inkscape:window-maximized="0"
     inkscape:current-layer="layer2">
    <inkscape:grid
       id="grid2"
       units="px"
       originx="0"
       originy="0"
       spacingx="0.26458334"
       spacingy="0.26458334"
       empcolor="#0099e5"
       empopacity="0.30196078"
       color="#0099e5"
       opacity="0.14901961"
       empspacing="5"
       dotted="false"
       gridanglex="30"
       gridanglez="30"
       visible="false" />
  </sodipodi:namedview>
  <defs
     id="defs1" />
  <g
     inkscape:label="Layer 1"
     inkscape:groupmode="layer"
     id="layer1"
     style="display:inline">
    <rect
       style="display:inline;vector-effect:none;fill:#e6e6e6;fill-opacity:1;fill-rule:evenodd;stroke:none;stroke-width:0.374906;stroke-linecap:butt;stroke-linejoin:miter;stroke-miterlimit:4;stroke-dasharray:none;stroke-dashoffset:0;stroke-opacity:1;paint-order:normal"
       id="rect420"
       width="10.16"
       height="128.5"
       x="3.2981237e-07"
       y="0" />
    <rect
       style="display:inline;fill:#800000;stroke-width:0.332781"
       id="rect8"
       width="10.017269"
       height="15.846818"
       x="0.048522394"
       y="105.37093" />
    <path
       style="font-size:3.175px;font-family:Sans;-inkscape-font-specification:'Sans, Normal';fill:#f9f9f9;stroke-width:0.264583"
       d="m 4.1895835,116.88093 q 0.1410767,0.15503 0.2154907,0.37982 0.075964,0.22479 0.075964,0.51005 0,0.28525 -0.077515,0.5116 -0.075964,0.22479 -0.2139404,0.37517 -0.1426269,0.15658 -0.3379639,0.23564 -0.1937866,0.0791 -0.4433837,0.0791 -0.243396,0 -0.4433838,-0.0806 -0.1984375,-0.0806 -0.3379639,-0.23409 -0.1395263,-0.15348 -0.2154907,-0.37672 -0.074414,-0.22325 -0.074414,-0.51005 0,-0.28215 0.074414,-0.5054 0.074414,-0.22479 0.217041,-0.38447 0.1364258,-0.15193 0.3379639,-0.23254 0.2030884,-0.0806 0.4418335,-0.0806 0.2480468,0 0.444934,0.0822 0.1984375,0.0806 0.3364136,0.23099 z m -0.027905,0.88987 q 0,-0.44959 -0.201538,-0.69298 -0.2015381,-0.24495 -0.550354,-0.24495 -0.3519165,0 -0.5534546,0.24495 -0.1999878,0.24339 -0.1999878,0.69298 0,0.45423 0.2046387,0.69608 0.2046386,0.2403 0.5488037,0.2403 0.344165,0 0.5472534,-0.2403 0.2046386,-0.24185 0.2046386,-0.69608 z m 2.2184693,1.15342 h -0.291455 v -0.19224 q -0.1472779,0.11627 -0.2821534,0.17828 -0.1348754,0.062 -0.2976562,0.062 -0.2728516,0 -0.4247803,-0.16589 -0.1519287,-0.16743 -0.1519287,-0.48989 v -1.12396 H 5.223629 v 0.98599 q 0,0.13177 0.012402,0.22634 0.012402,0.093 0.05271,0.15968 0.041858,0.0682 0.1085205,0.0992 0.066663,0.031 0.1937866,0.031 0.1131714,0 0.2464966,-0.0589 0.1348755,-0.0589 0.2511475,-0.15038 v -1.29294 h 0.291455 z m 1.4727785,-0.0155 q -0.082166,0.0217 -0.179834,0.0357 -0.096118,0.014 -0.1720825,0.014 -0.2651001,0 -0.4030762,-0.14262 -0.137976,-0.14263 -0.137976,-0.45734 v -0.92087 H 6.7630701 v -0.24495 H 6.9599573 V 116.695 h 0.291455 v 0.49764 H 7.852926 v 0.24495 H 7.2514123 v 0.78909 q 0,0.13643 0.0062,0.21395 0.0062,0.076 0.043408,0.14262 0.034107,0.062 0.093018,0.0915 0.060461,0.0279 0.1829346,0.0279 0.071313,0 0.1488281,-0.0202 0.077515,-0.0217 0.1116211,-0.0357 h 0.015503 z"
       id="text2-0-2"
       inkscape:label="Out"
       aria-label="Out" />
    <path
       style="font-size:3.52777px;font-family:Sans;-inkscape-font-specification:'Sans, Normal';stroke-width:0.264583"
       d="M 2.9791631,11.167865 H 2.6380994 V 8.9578411 L 1.9249662,10.461622 H 1.721706 L 1.0137405,8.9578411 V 11.167865 H 0.69506985 V 8.602997 H 1.1601567 l 0.68385,1.427989 0.6614569,-1.427989 H 2.9791631 Z M 3.9902965,8.9216677 H 3.6251172 V 8.5857716 H 3.9902965 Z M 3.969626,11.167865 H 3.6457877 V 9.2437834 H 3.969626 Z m 2.3064864,0 H 5.8678695 L 5.3218231,10.428894 4.7723315,11.167865 H 4.3950944 L 5.1461236,10.208408 4.4019846,9.2437834 H 4.8102275 L 5.3528288,9.9706969 5.8971527,9.2437834 H 6.2761124 L 5.5199156,10.191183 Z m 1.991261,-0.928451 H 6.8497197 q 0,0.177422 0.053399,0.310058 0.053399,0.130913 0.1464162,0.215318 0.089572,0.08268 0.211873,0.124023 0.1240231,0.04134 0.2721619,0.04134 0.19637,0 0.3944626,-0.07751 0.1998151,-0.07924 0.2842197,-0.155029 h 0.017226 v 0.353121 q -0.1636417,0.0689 -0.3341736,0.11541 -0.1705318,0.04651 -0.3582891,0.04651 -0.4788672,0 -0.7475841,-0.258381 -0.2687169,-0.260104 -0.2687169,-0.737249 0,-0.4719769 0.2566591,-0.7493065 0.2583816,-0.2773296 0.6786823,-0.2773296 0.389295,0 0.5994453,0.2273758 Q 8.267374,9.6451365 8.267374,10.063715 Z M 7.9521479,9.9913675 Q 7.9504253,9.736431 7.8229571,9.5969049 7.6972114,9.4573788 7.4388298,9.4573788 q -0.2601042,0 -0.4151331,0.1533065 -0.1533064,0.1533064 -0.173977,0.3806822 z M 9.9589113,9.5969049 h -0.017225 q -0.072347,-0.017225 -0.1412486,-0.024116 -0.067179,-0.00861 -0.1601966,-0.00861 -0.1498613,0 -0.2893874,0.067179 -0.139526,0.065457 -0.2687168,0.1705318 V 11.167865 H 8.7582982 V 9.2437834 h 0.3238383 v 0.2842197 q 0.1929249,-0.1550289 0.3393411,-0.218763 0.1481388,-0.065457 0.3014452,-0.065457 0.084405,0 0.1223006,0.00517 0.037896,0.00345 0.1136879,0.015503 z"
       id="text1"
       inkscape:label="Mixer"
       aria-label="Mixer" />
    <path
       d="M 3.3681531,30.80151 H 2.3552972 V 30.539683 H 2.6911933 V 28.498469 H 2.3552972 v -0.261827 h 1.0128559 v 0.261827 H 3.032257 v 2.041214 h 0.3358961 z m 2.1635152,0 H 5.20783 v -1.095538 q 0,-0.132636 -0.015503,-0.248046 -0.015503,-0.117133 -0.056844,-0.18259 -0.043064,-0.07235 -0.1240232,-0.106798 -0.08096,-0.03617 -0.2101504,-0.03617 -0.1326358,0 -0.2773295,0.06546 -0.1446937,0.06546 -0.2773296,0.167087 V 30.80151 H 3.9228122 v -1.924082 h 0.3238383 v 0.213596 q 0.1515839,-0.125746 0.313503,-0.19637 0.1619191,-0.07062 0.332451,-0.07062 0.3117804,0 0.4754221,0.187758 0.1636417,0.187757 0.1636417,0.540878 z m 2.1721279,0 H 6.3154258 V 30.539683 H 6.8494144 V 28.820584 H 6.3154258 v -0.234266 q 0.1085203,0 0.2325434,-0.01722 0.1240232,-0.01895 0.1877573,-0.0534 0.079237,-0.04306 0.1240232,-0.10852 0.046509,-0.06718 0.053399,-0.179145 h 0.2669943 v 2.311654 h 0.5236533 z"
       id="text1-9"
       style="font-size:3.52777px;font-family:Sans;-inkscape-font-specification:'Sans, Normal';stroke-width:0.264583"
       inkscape:label="In1"
       aria-label="In1" />
    <path
       d="M 3.2205298,47.90826 H 2.2076739 V 47.646434 H 2.54357 V 45.605219 H 2.2076739 v -0.261827 h 1.0128559 v 0.261827 H 2.8846337 v 2.041215 h 0.3358961 z m 2.1635152,0 H 5.0602067 v -1.095538 q 0,-0.132636 -0.015503,-0.248046 -0.015503,-0.117133 -0.056844,-0.18259 -0.043064,-0.07235 -0.1240232,-0.106797 -0.08096,-0.03617 -0.2101504,-0.03617 -0.1326358,0 -0.2773295,0.06546 -0.1446937,0.06546 -0.2773296,0.167087 V 47.90826 H 3.7751889 v -1.924081 h 0.3238383 v 0.213595 q 0.1515839,-0.125746 0.313503,-0.19637 0.1619191,-0.07062 0.332451,-0.07062 0.3117804,0 0.4754221,0.187757 0.1636417,0.187757 0.1636417,0.540879 z m 2.3185442,0 H 5.9662649 v -0.360011 q 0.1808671,-0.155029 0.3617342,-0.310058 0.1825897,-0.155029 0.3393412,-0.308336 0.3307284,-0.320393 0.453029,-0.50815 0.1223006,-0.18948 0.1223006,-0.408243 0,-0.199815 -0.1326358,-0.31178 -0.1309134,-0.113688 -0.3669019,-0.113688 -0.1567515,0 -0.3393412,0.05512 -0.1825896,0.05512 -0.3565666,0.168809 H 6.029999 V 45.45019 q 0.1223006,-0.06029 0.3255608,-0.110243 0.2049827,-0.04995 0.3961851,-0.04995 0.3944626,0 0.6183933,0.191202 0.2239307,0.18948 0.2239307,0.515041 0,0.146416 -0.037896,0.273884 -0.036173,0.125746 -0.1085202,0.239434 -0.067179,0.106797 -0.1584741,0.21015 -0.089572,0.103353 -0.2187631,0.229098 -0.1843122,0.180867 -0.3806822,0.351399 -0.19637,0.16881 -0.3669018,0.313503 h 1.3797577 z"
       id="text1-9-6"
       style="font-size:3.52777px;font-family:Sans;-inkscape-font-specification:'Sans, Normal';stroke-width:0.264583"
       inkscape:label="In2"
       aria-label="In2" />
    <path
       d="M 3.2205303,65.059944 H 2.2076744 V 64.798117 H 2.5435705 V 62.756903 H 2.2076744 v -0.261827 h 1.0128559 v 0.261827 H 2.8846342 v 2.041214 h 0.3358961 z m 2.1635152,0 H 5.0602072 v -1.095538 q 0,-0.132636 -0.015503,-0.248046 -0.015503,-0.117133 -0.056844,-0.18259 -0.043064,-0.07235 -0.1240232,-0.106798 -0.08096,-0.03617 -0.2101504,-0.03617 -0.1326359,0 -0.2773296,0.06546 -0.1446936,0.06546 -0.2773295,0.167086 v 1.436602 H 3.7751894 v -1.924081 h 0.3238383 v 0.213595 q 0.1515838,-0.125746 0.313503,-0.19637 0.1619191,-0.07062 0.332451,-0.07062 0.3117804,0 0.4754221,0.187757 0.1636417,0.187757 0.1636417,0.540879 z M 7.4769364,63.82488 q 0.082682,0.07407 0.136081,0.186035 0.053399,0.111965 0.053399,0.289387 0,0.1757 -0.063734,0.322116 -0.063734,0.146416 -0.1791446,0.254936 -0.1291908,0.120579 -0.3048903,0.179145 -0.1739769,0.05684 -0.3824047,0.05684 -0.2135955,0 -0.4203007,-0.05168 -0.2067053,-0.04995 -0.3393412,-0.110243 v -0.360012 h 0.025838 q 0.1464162,0.09646 0.3445088,0.160197 0.1980925,0.06373 0.3824047,0.06373 0.1085203,0 0.2308209,-0.03617 0.1223006,-0.03617 0.1980926,-0.106797 0.079237,-0.07579 0.1171329,-0.167087 0.039619,-0.0913 0.039619,-0.230821 0,-0.137803 -0.044786,-0.227376 -0.043064,-0.0913 -0.1205781,-0.142971 -0.077514,-0.0534 -0.1877573,-0.07235 Q 6.8516529,63.8111 6.7241847,63.8111 h -0.155029 v -0.285943 h 0.1205781 q 0.2618267,0 0.4168556,-0.10852 0.1567515,-0.110243 0.1567515,-0.320393 0,-0.09302 -0.039619,-0.161919 -0.039618,-0.07062 -0.1102428,-0.115411 -0.074069,-0.04479 -0.158474,-0.06201 -0.084405,-0.01723 -0.1912024,-0.01723 -0.1636417,0 -0.3479539,0.05857 -0.1843122,0.05857 -0.3479539,0.165364 H 6.05067 v -0.360012 q 0.1223006,-0.06029 0.3255608,-0.110242 0.2049827,-0.05168 0.3961851,-0.05168 0.1877573,0 0.3307285,0.03445 0.1429711,0.03445 0.2583815,0.110243 0.1240232,0.08268 0.1877573,0.199815 0.063734,0.117133 0.063734,0.273885 0,0.213595 -0.1515839,0.373792 -0.1498613,0.158474 -0.3548441,0.199815 v 0.02411 q 0.082682,0.01378 0.1894799,0.05857 0.1067977,0.04306 0.1808671,0.10852 z"
       id="text1-9-6-1"
       style="font-size:3.52777px;font-family:Sans;-inkscape-font-specification:'Sans, Normal';stroke-width:0.264583"
       inkscape:label="In3"
       aria-label="In3" />
    <path
       d="M 3.3115382,82.787025 H 2.2986824 v -0.261826 h 0.335896 v -2.041215 h -0.335896 v -0.261827 h 1.0128558 v 0.261827 H 2.9756421 v 2.041215 h 0.3358961 z m 2.1635152,0 H 5.1512151 v -1.095538 q 0,-0.132635 -0.015503,-0.248046 -0.015503,-0.117133 -0.056844,-0.18259 -0.043064,-0.07235 -0.1240232,-0.106797 -0.080959,-0.03617 -0.2101503,-0.03617 -0.1326359,0 -0.2773296,0.06546 -0.1446937,0.06546 -0.2773296,0.167087 v 1.436601 H 3.8661974 v -1.924081 h 0.3238382 v 0.213595 q 0.1515839,-0.125745 0.313503,-0.19637 0.1619192,-0.07062 0.332451,-0.07062 0.3117805,0 0.4754221,0.187757 0.1636417,0.187758 0.1636417,0.540879 z M 7.8521641,82.06528 H 7.4714819 v 0.721745 H 7.1407534 V 82.06528 H 5.9125796 v -0.396186 l 1.2419542,-1.446937 h 0.3169481 v 1.567515 H 7.8521641 Z M 7.1407534,81.789672 v -1.157549 l -0.9939078,1.157549 z"
       id="text1-9-6-1-3"
       style="font-size:3.52777px;font-family:Sans;-inkscape-font-specification:'Sans, Normal';stroke-width:0.264583"
       inkscape:label="In4"
       aria-label="In4" />
    <path
       d="m 3.4921059,99.974393 q -0.2101503,0.0965 -0.4599192,0.168807 -0.2480463,0.0706 -0.4805898,0.0706 -0.2997226,0 -0.5494915,-0.0827 -0.2497689,-0.0827 -0.4254683,-0.248047 -0.1774221,-0.16709 -0.2738845,-0.416857 -0.096463,-0.25149 -0.096463,-0.587384 0,-0.614948 0.3582891,-0.969792 0.3600117,-0.356567 0.9870177,-0.356567 0.2187631,0 0.4461389,0.0534 0.2290984,0.05168 0.4926476,0.177422 v 0.404798 h -0.031006 q -0.053399,-0.04134 -0.1550289,-0.10852 -0.1016301,-0.06718 -0.1998151,-0.111966 -0.1188556,-0.0534 -0.2704395,-0.08785 -0.1498613,-0.03617 -0.3410637,-0.03617 -0.4306359,0 -0.6821274,0.27733 -0.2497688,0.275607 -0.2497688,0.747584 0,0.497819 0.2618266,0.775152 0.2618267,0.2756 0.7131332,0.2756 0.1653643,0 0.3290059,-0.0327 0.1653643,-0.0327 0.2893874,-0.0844 V 99.1734 h -0.687295 v -0.299722 h 1.0249136 z m 2.0653302,0.189477 H 5.2353203 v -0.204977 q -0.043064,0.0293 -0.1171329,0.0827 -0.072347,0.0517 -0.1412487,0.0827 -0.080959,0.0396 -0.1860347,0.0655 -0.1050752,0.0276 -0.2463238,0.0276 -0.2601041,0 -0.4409712,-0.17225 -0.1808672,-0.172257 -0.1808672,-0.439247 0,-0.218757 0.093017,-0.353117 0.09474,-0.13608 0.2687169,-0.2136 0.1756995,-0.0775 0.4220232,-0.105073 0.2463238,-0.02756 0.528821,-0.04134 v -0.04995 q 0,-0.110243 -0.039618,-0.18259 -0.037896,-0.07235 -0.1102428,-0.113688 -0.068902,-0.03962 -0.1653642,-0.0534 -0.096463,-0.01378 -0.2015376,-0.01378 -0.1274683,0 -0.2842198,0.03445 -0.1567515,0.03273 -0.3238383,0.09646 h -0.017225 v -0.329006 q 0.09474,-0.02584 0.2738845,-0.05684 0.1791446,-0.03101 0.3531215,-0.03101 0.2032602,0 0.3531215,0.03445 0.1515839,0.03273 0.2618267,0.113688 0.1085203,0.07924 0.1653642,0.204983 0.056844,0.125746 0.056844,0.31178 z M 5.2353203,99.690173 v -0.535707 q -0.1481387,0.009 -0.3496764,0.0258 -0.1998151,0.0172 -0.3169481,0.0499 -0.139526,0.0396 -0.2256532,0.12403 -0.086127,0.0827 -0.086127,0.229097 0,0.16536 0.099908,0.24977 0.099908,0.0827 0.3048903,0.0827 0.1705319,0 0.3117805,-0.0655 0.1412486,-0.0672 0.2618266,-0.1602 z M 6.5289509,97.917682 H 6.1637716 v -0.335896 h 0.3651793 z m -0.02067,2.246188 H 6.1844421 v -1.924072 h 0.3238383 z m 2.2496422,0 H 8.4340844 v -1.095524 q 0,-0.13264 -0.015503,-0.248051 -0.015503,-0.117133 -0.056844,-0.182589 -0.043064,-0.07235 -0.1240231,-0.106798 -0.08096,-0.03617 -0.2101504,-0.03617 -0.1326359,0 -0.2773296,0.06546 -0.1446937,0.06546 -0.2773296,0.167087 v 1.436595 H 7.1490666 v -1.924075 h 0.3238382 v 0.213596 q 0.1515839,-0.125746 0.313503,-0.19637 0.1619192,-0.07063 0.332451,-0.07063 0.3117805,0 0.4754222,0.187758 0.1636416,0.187757 0.1636416,0.540878 z"
       id="text5"
       style="font-size:3.52777px;font-family:Sans;-inkscape-font-specification:'Sans, Normal';stroke-width:0.264583"
       aria-label="Gain"
       inkscape:label="Gain" />
  </g>
  <g
     inkscape:groupmode="layer"
     id="layer2"
     inkscape:label="components"
     style="display:inline">
    <ellipse
       style="fill:#0000ff;stroke-width:0.170307"
       id="path2"
       cx="5.1491008"
       cy="111.79661"
       rx="3.9461007"
       ry="3.523304"
       inkscape:label="out" />
    <ellipse
       style="fill:#00ff00;stroke-width:0.170307"
       id="ellipse3-9-8"
       cx="5.1491008"
       cy="41.045158"
       rx="3.9461007"
       ry="3.523304"
       inkscape:label="input2" />
    <ellipse
       style="display:inline;fill:#00ff00;stroke-width:0.170307"
       id="ellipse3-9-8-9"
       cx="5.0044341"
       cy="57.498322"
       rx="3.9461007"
       ry="3.523304"
       inkscape:label="input3" />
    <ellipse
       style="display:inline;fill:#00ff00;stroke-width:0.170307"
       id="ellipse3-9-8-9-5"
       cx="5.0954418"
       cy="75.225403"
       rx="3.9461007"
       ry="3.523304"
       inkscape:label="input4" />
    <ellipse
       style="display:inline;fill:#ff0000;stroke-width:0.170307"
       id="ellipse3-9-8-9-5-3"
       cx="5.0169678"
       cy="92.423317"
       rx="3.9461007"
       ry="3.523304"
       inkscape:label="Gain" />
    <ellipse
       style="fill:#00ff00;stroke-width:0.170307"
       id="ellipse3-9-8-8"
       cx="5.1491222"
       cy="23.631573"
       rx="3.9461007"
       ry="3.523304"
       inkscape:label="input1" />
  </g>
</svg>
