<?xml version="1.0" encoding="UTF-8" standalone="no"?>
<!-- Created with Inkscape (http://www.inkscape.org/) -->

<svg
   width="10.16mm"
   height="128.5mm"
   viewBox="0 0 10.16 128.5"
   version="1.1"
   id="svg1"
   inkscape:version="1.3 (0e150ed, 2023-07-21)"
   sodipodi:docname="SimpleVCO.svg"
   xmlns:inkscape="http://www.inkscape.org/namespaces/inkscape"
   xmlns:sodipodi="http://sodipodi.sourceforge.net/DTD/sodipodi-0.dtd"
   xmlns="http://www.w3.org/2000/svg"
   xmlns:svg="http://www.w3.org/2000/svg">
  <sodipodi:namedview
     id="namedview1"
     pagecolor="#505050"
     bordercolor="#eeeeee"
     borderopacity="1"
     inkscape:showpageshadow="0"
     inkscape:pageopacity="0"
     inkscape:pagecheckerboard="0"
     inkscape:deskcolor="#d1d1d1"
     inkscape:document-units="mm"
     showgrid="false"
     inkscape:zoom="1.8286481"
     inkscape:cx="-26.248899"
     inkscape:cy="104.44875"
     inkscape:window-width="1288"
     inkscape:window-height="803"
     inkscape:window-x="42"
     inkscape:window-y="295"
     inkscape:window-maximized="0"
     inkscape:current-layer="layer2">
    <inkscape:grid
       id="grid2"
       units="px"
       originx="0"
       originy="0"
       spacingx="0.26458334"
       spacingy="0.26458334"
       empcolor="#0099e5"
       empopacity="0.30196078"
       color="#0099e5"
       opacity="0.14901961"
       empspacing="5"
       dotted="false"
       gridanglex="30"
       gridanglez="30"
       visible="false" />
  </sodipodi:namedview>
  <defs
     id="defs1" />
  <g
     inkscape:label="Layer 1"
     inkscape:groupmode="layer"
     id="layer1"
     style="display:inline">
    <rect
       style="display:inline;vector-effect:none;fill:#e6e6e6;fill-opacity:1;fill-rule:evenodd;stroke:none;stroke-width:0.374906;stroke-linecap:butt;stroke-linejoin:miter;stroke-miterlimit:4;stroke-dasharray:none;stroke-dashoffset:0;stroke-opacity:1;paint-order:normal"
       id="rect420"
       width="10.16"
       height="128.5"
       x="3.2981237e-07"
       y="0" />
    <path
       d="M 3.5058232,5.5772646 2.3854791,8.6551104 H 1.8397764 L 0.71943232,5.5772646 H 1.1576481 L 2.122963,8.2851074 3.088278,5.5772646 Z m 2.8442684,2.8546038 q -0.113688,0.049609 -0.2067055,0.093017 -0.09095,0.043408 -0.2397785,0.09095 -0.1260904,0.039274 -0.2749184,0.066146 -0.1467609,0.028939 -0.3245277,0.028939 -0.334863,0 -0.6097814,-0.093018 Q 4.4215288,8.5228188 4.2189573,8.3223144 4.02052,8.1259441 3.908899,7.824154 3.797278,7.5202969 3.797278,7.1192881 q 0,-0.3803382 0.1074869,-0.6800613 Q 4.0122518,6.1395038 4.2148232,5.9327982 4.4111935,5.7322938 4.6881789,5.626874 4.9672314,5.5214541 5.3062286,5.5214541 q 0.2480466,0 0.4940262,0.059945 0.2480467,0.059945 0.5498368,0.2108396 V 6.2779965 H 6.3190858 Q 6.0648379,6.0650898 5.8147242,5.9679381 5.5646105,5.8707865 5.2793568,5.8707865 q -0.2335772,0 -0.4216793,0.076481 -0.186035,0.074414 -0.3327959,0.2335773 -0.1426269,0.1550291 -0.223242,0.3927405 -0.078548,0.2356444 -0.078548,0.5457027 0,0.3245277 0.086816,0.558105 0.088883,0.2335773 0.2273761,0.3803382 0.1446939,0.1529621 0.33693,0.2273761 0.1943033,0.072347 0.409277,0.072347 0.295589,0 0.5539709,-0.1012858 0.258382,-0.1012857 0.483691,-0.3038571 h 0.028939 z M 9.2232989,5.9307311 q 0.188102,0.2067056 0.2873207,0.5064287 0.1012857,0.299723 0.1012857,0.6800612 0,0.3803382 -0.1033528,0.6821284 Q 9.4072668,8.0990724 9.2232989,8.2995768 9.0331297,8.5083494 8.7726807,8.6137692 8.5142988,8.7191891 8.1815029,8.7191891 7.8569751,8.7191891 7.590325,8.6117022 7.3257419,8.5042153 7.1397069,8.2995768 6.9536719,8.0949383 6.8523861,7.7972823 6.7531675,7.4996263 6.7531675,7.117221 q 0,-0.3762041 0.099219,-0.6738601 Q 6.9516048,6.1436379 7.1417739,5.9307311 7.3236748,5.7281597 7.592392,5.6206728 7.8631763,5.5131859 8.1815029,5.5131859 q 0.3307288,0 0.5932449,0.109554 0.2645831,0.1074869 0.4485511,0.3079912 z M 9.1860919,7.117221 q 0,-0.5994461 -0.2687173,-0.9239738 -0.2687172,-0.3265948 -0.7338047,-0.3265948 -0.4692216,0 -0.7379388,0.3265948 -0.2666502,0.3245277 -0.2666502,0.9239738 0,0.6056473 0.2728513,0.928108 0.2728514,0.3203936 0.7317377,0.3203936 0.4588863,0 0.7296706,-0.3203936 0.2728514,-0.3224607 0.2728514,-0.928108 z"
       id="text1"
       style="font-size:4.23333px;font-family:Sans;-inkscape-font-specification:'Sans, Normal';stroke-width:0.264583"
       inkscape:label="text1"
       aria-label="VCO" />
    <path
       d="m 2.9115363,30.325779 q 0,0.210323 -0.079582,0.371382 -0.079582,0.161058 -0.2141129,0.265273 Q 2.458678,31.087491 2.2673027,31.140545 2.0778222,31.1936 1.7841275,31.1936 H 0.78367066 V 28.372236 H 1.6192795 q 0.3088532,0 0.4623323,0.02274 0.1534792,0.02274 0.2936948,0.09474 0.1553739,0.08148 0.2254817,0.210324 0.070108,0.126952 0.070108,0.305063 0,0.20085 -0.1023195,0.34296 -0.1023194,0.140216 -0.2728518,0.225482 v 0.01516 q 0.2861155,0.05874 0.4509635,0.252009 0.164848,0.191375 0.164848,0.48507 z m -0.63097,-1.271414 q 0,-0.102319 -0.034107,-0.172427 Q 2.2123534,28.81183 2.1365612,28.76825 2.0475054,28.71709 1.9205534,28.705721 1.7936015,28.692458 1.6060159,28.692458 H 1.158842 v 0.814766 h 0.48507 q 0.1762168,0 0.2804311,-0.01705 0.1042142,-0.01895 0.19327,-0.07579 0.089056,-0.05684 0.1250571,-0.1459 0.037896,-0.09095 0.037896,-0.214113 z m 0.2406402,1.286573 q 0,-0.170533 -0.05116,-0.270957 -0.05116,-0.100425 -0.1856909,-0.170533 -0.090951,-0.04737 -0.2216921,-0.06063 -0.1288467,-0.01516 -0.3145376,-0.01516 H 1.158842 v 1.049722 h 0.4964388 q 0.2463246,0 0.4035934,-0.02463 0.1572688,-0.02653 0.2576934,-0.09474 0.1061091,-0.0739 0.155374,-0.168638 0.049265,-0.09474 0.049265,-0.244429 z M 3.7755672,31.1936 H 3.4193439 V 28.245284 H 3.7755672 Z M 4.863185,28.722774 H 4.4614864 V 28.353288 H 4.863185 Z M 4.8404473,31.1936 H 4.4842241 v -2.116497 h 0.3562232 z m 2.4746151,0 H 6.9588391 v -1.205096 q 0,-0.1459 -0.017053,-0.272852 -0.017053,-0.128847 -0.062529,-0.200849 -0.04737,-0.07958 -0.1364259,-0.117478 -0.089056,-0.03979 -0.2311662,-0.03979 -0.1459,0 -0.3050635,0.072 -0.1591636,0.072 -0.3050636,0.183796 V 31.1936 H 5.5453148 v -2.116497 h 0.3562233 v 0.234956 q 0.1667428,-0.138321 0.3448544,-0.216008 0.1781117,-0.07769 0.3656973,-0.07769 0.3429597,0 0.5229661,0.206534 0.1800065,0.206533 0.1800065,0.594968 z m 2.6072514,0 H 9.4524022 L 8.6035297,30.26704 8.3723636,30.486838 V 31.1936 H 8.0161403 v -2.948316 h 0.3562233 v 1.891015 l 1.0288789,-1.059196 h 0.4490687 l -0.9834036,0.977719 z"
       id="text1-4"
       style="font-size:3.88056px;font-family:Sans;-inkscape-font-specification:'Sans, Normal';stroke-width:0.264583"
       inkscape:label="Blink"
       aria-label="Blink" />
    <path
       d="m 2.6392897,53.896303 q 0,0.187586 -0.066318,0.348645 -0.064423,0.159163 -0.1819012,0.276641 -0.1459,0.1459 -0.3448544,0.219797 -0.1989545,0.072 -0.5021233,0.072 H 1.1689213 v 1.051616 H 0.79374998 V 53.043641 H 1.5592511 q 0.2539038,0 0.4301206,0.04358 0.1762168,0.04169 0.3126428,0.132636 0.1610584,0.108004 0.2482194,0.269062 0.089056,0.161059 0.089056,0.407383 z m -0.3903297,0.0095 q 0,-0.145899 -0.05116,-0.253903 -0.05116,-0.108004 -0.155374,-0.176217 -0.090951,-0.05874 -0.2084285,-0.08337 -0.1155831,-0.02653 -0.2936947,-0.02653 H 1.1689213 v 1.127409 h 0.3164324 q 0.2273765,0 0.3694869,-0.03979 0.1421103,-0.04169 0.2311662,-0.130741 0.089056,-0.09095 0.1250571,-0.191376 Q 2.24896,54.030835 2.24896,53.905777 Z M 3.4881623,53.39418 H 3.0864637 v -0.369487 h 0.4016986 z m -0.022738,2.470825 H 3.1092014 v -2.116496 h 0.3562232 z m 1.803854,-0.01895 q -0.1004247,0.02653 -0.2197974,0.04358 -0.1174779,0.01705 -0.2103233,0.01705 -0.3240116,0 -0.4926492,-0.174322 Q 4.1778711,55.558047 4.1778711,55.173402 V 54.047888 H 3.9372309 v -0.299379 h 0.2406402 v -0.608233 h 0.3562233 v 0.608233 h 0.7351842 v 0.299379 H 4.5340944 v 0.964455 q 0,0.166743 0.00758,0.261483 0.00758,0.09285 0.053055,0.174322 0.041686,0.07579 0.1136883,0.111794 0.073897,0.03411 0.2235869,0.03411 0.087161,0 0.1819013,-0.02463 0.09474,-0.02653 0.1364259,-0.04358 h 0.018948 z m 1.9952295,-0.113688 q -0.1781116,0.08527 -0.33917,0.132636 -0.1591636,0.04737 -0.3391701,0.04737 -0.2292713,0 -0.4206466,-0.06632 -0.1913753,-0.06821 -0.3278012,-0.204638 -0.1383207,-0.136426 -0.2141129,-0.344855 -0.075792,-0.208428 -0.075792,-0.486965 0,-0.519176 0.2842207,-0.814766 0.2861155,-0.295589 0.7541322,-0.295589 0.1819013,0 0.3562233,0.05116 0.1762168,0.05116 0.3221168,0.125057 v 0.396014 H 7.24556 Q 7.0826068,54.144523 6.9082848,54.07631 q -0.1724272,-0.06821 -0.3372752,-0.06821 -0.3031688,0 -0.4793856,0.204639 -0.174322,0.202744 -0.174322,0.596863 0,0.382751 0.1705324,0.589285 0.1724272,0.204638 0.4831752,0.204638 0.1080039,0 0.2197973,-0.02842 0.1117935,-0.02842 0.2008493,-0.0739 0.077687,-0.03979 0.1459,-0.08337 0.068213,-0.04548 0.1080038,-0.07769 h 0.018948 z m 2.2263955,0.132636 H 9.1346804 V 54.65991 q 0,-0.1459 -0.017053,-0.272852 -0.017053,-0.128847 -0.062528,-0.200849 -0.04737,-0.07958 -0.136426,-0.117478 -0.089056,-0.03979 -0.2311661,-0.03979 -0.1459,0 -0.3050636,0.072 -0.1591636,0.072 -0.3050635,0.183796 v 1.580267 H 7.7211561 v -2.948316 h 0.3562233 v 1.066775 q 0.1667428,-0.13832 0.3448544,-0.216007 0.1781117,-0.07769 0.3656973,-0.07769 0.3429597,0 0.5229661,0.206533 0.1800064,0.206534 0.1800064,0.594969 z"
       id="text1-4-0"
       style="font-size:3.88056px;font-family:Sans;-inkscape-font-specification:'Sans, Normal';stroke-width:0.264583"
       inkscape:label="Pitch"
       aria-label="Pitch" />
    <path
       d="M 2.4677865,80.471252 H 0.94057396 v -0.28801 H 1.5279634 V 78.292227 H 0.94057396 v -0.257693 q 0.11937274,0 0.25579864,-0.01895 0.1364259,-0.02084 0.2065337,-0.05874 0.087161,-0.04737 0.1364259,-0.119373 0.05116,-0.0739 0.058739,-0.19706 h 0.2936947 v 2.542828 H 2.4677865 Z M 5.0617742,78.354756 4.2053225,80.471252 H 3.8472044 L 2.9964371,78.354756 h 0.3865402 l 0.6556024,1.684481 0.649918,-1.684481 z m 1.7451154,-0.83182 -1.358575,3.524337 H 5.1205134 L 6.473404,77.522936 Z m 2.2870288,1.891015 q 0,0.517282 -0.2652727,0.816661 -0.2652726,0.299379 -0.7105517,0.299379 -0.4490687,0 -0.7143413,-0.299379 -0.2633779,-0.299379 -0.2633779,-0.816661 0,-0.517281 0.2633779,-0.81666 0.2652726,-0.301274 0.7143413,-0.301274 0.4452791,0 0.7105517,0.301274 0.2652727,0.299379 0.2652727,0.81666 z m -0.3675921,0 q 0,-0.411172 -0.1610584,-0.610127 -0.1610584,-0.200849 -0.4471739,-0.200849 -0.2899051,0 -0.4509635,0.200849 -0.1591636,0.198955 -0.1591636,0.610127 0,0.397909 0.1610584,0.604443 0.1610584,0.204639 0.4490687,0.204639 0.2842207,0 0.4452791,-0.202744 0.1629532,-0.204639 0.1629532,-0.606338 z"
       id="text1-4-0-9"
       style="font-size:3.88056px;font-family:Sans;-inkscape-font-specification:'Sans, Normal';stroke-width:0.264583"
       inkscape:label="1v/oct"
       aria-label="1v/o" />
    <path
       d="m 3.2262715,110.8868 q 0,0.16485 -0.077687,0.32591 -0.075792,0.16106 -0.214113,0.27285 -0.1515843,0.12127 -0.3543284,0.18948 -0.2008493,0.0682 -0.48507,0.0682 -0.3050636,0 -0.5494934,-0.0568 -0.242535,-0.0568 -0.494544,-0.16864 v -0.46991 h 0.026527 q 0.2141129,0.17811 0.494544,0.27475 0.2804311,0.0966 0.5267557,0.0966 0.348644,0 0.5419141,-0.13074 0.1951649,-0.13074 0.1951649,-0.34864 0,-0.18759 -0.092845,-0.27665 -0.090951,-0.0891 -0.2785363,-0.13832 -0.1421104,-0.0379 -0.3088532,-0.0625 -0.164848,-0.0246 -0.3505388,-0.0625 -0.3751714,-0.0796 -0.5570726,-0.27096 -0.1800064,-0.19327 -0.1800064,-0.50212 0,-0.35433 0.2993791,-0.57981 0.2993791,-0.22738 0.7598167,-0.22738 0.2974843,0 0.5457037,0.0568 0.2482194,0.0568 0.4395947,0.14022 v 0.44338 h -0.026527 q -0.1610584,-0.13642 -0.4244362,-0.22548 -0.2614831,-0.091 -0.5362297,-0.091 -0.301274,0 -0.48507,0.12506 -0.1819013,0.12505 -0.1819013,0.32211 0,0.17622 0.090951,0.27665 0.090951,0.10042 0.320222,0.15348 0.1212675,0.0265 0.3448545,0.0644 0.2235869,0.0379 0.3789609,0.0777 0.3145376,0.0834 0.4737012,0.252 0.1591636,0.16864 0.1591636,0.47181 z m 0.9568762,-1.66553 H 3.7814491 v -0.36949 h 0.4016986 z m -0.022738,2.47082 H 3.8041868 v -2.11649 h 0.3562233 z m 2.4746147,0 H 6.2788016 V 110.487 q 0,-0.1459 -0.017053,-0.27285 -0.017053,-0.12885 -0.062528,-0.20085 -0.04737,-0.0796 -0.136426,-0.11748 -0.089056,-0.0398 -0.2311661,-0.0398 -0.1459,0 -0.3050636,0.072 -0.1591636,0.072 -0.3050635,0.1838 v 1.58026 H 4.8652773 v -2.11649 h 0.3562233 v 0.23495 q 0.1667428,-0.13832 0.3448544,-0.21601 0.1781117,-0.0777 0.3656973,-0.0777 0.3429597,0 0.5229661,0.20653 0.1800064,0.20653 0.1800064,0.59497 z m 2.4575619,-1.0213 H 7.5331624 q 0,0.19517 0.058739,0.34107 0.058739,0.144 0.1610584,0.23685 0.09853,0.0909 0.233061,0.13642 0.1364259,0.0455 0.2993791,0.0455 0.2160077,0 0.4339103,-0.0853 0.2197973,-0.0872 0.3126427,-0.17053 h 0.018948 v 0.38844 q -0.1800065,0.0758 -0.3675921,0.12695 -0.1875857,0.0512 -0.3941194,0.0512 -0.5267557,0 -0.8223452,-0.28422 -0.2955895,-0.28612 -0.2955895,-0.81098 0,-0.51918 0.2823258,-0.82424 0.2842207,-0.30506 0.7465531,-0.30506 0.4282258,0 0.659392,0.25011 0.233061,0.25012 0.233061,0.71055 z m -0.3467493,-0.27285 q -0.00189,-0.28043 -0.1421103,-0.43391 -0.1383208,-0.15348 -0.4225415,-0.15348 -0.2861155,0 -0.4566479,0.16864 -0.1686376,0.16864 -0.1913753,0.41875 z"
       id="text1-4-0-9-9"
       style="font-size:3.88056px;font-family:Sans;-inkscape-font-specification:'Sans, Normal';stroke-width:0.264583"
       inkscape:label="Sine"
       aria-label="Sine" />
    <rect
       style="fill:#800000;stroke-width:0.264583"
       id="rect8"
       width="10.017269"
       height="10.017269"
       x="0.26555431"
       y="97.985878" />
  </g>
  <g
     inkscape:groupmode="layer"
     id="layer2"
     inkscape:label="components">
    <ellipse
       style="fill:#0000ff;stroke-width:0.170307"
       id="ellipse3-9"
       cx="5.1491008"
       cy="103.12351"
       rx="3.9461007"
       ry="3.523304"
       inkscape:label="sine out" />
    <ellipse
       style="fill:#00ff00;stroke-width:0.170307"
       id="path2"
       cx="5.1491008"
       cy="73.438812"
       rx="3.9461007"
       ry="3.523304"
       inkscape:label="1v/oct" />
    <ellipse
       style="fill:#00ff00;stroke-width:0.170307"
       id="ellipse3-9-8"
       cx="5.1491008"
       cy="48.665596"
       rx="3.9461007"
       ry="3.523304"
       inkscape:label="pitch" />
    <ellipse
       style="fill:#ff00ff;stroke-width:0.170307"
       id="ellipse3-9-8-8"
       cx="5.1491222"
       cy="23.631573"
       rx="3.9461007"
       ry="3.523304"
       inkscape:label="blink" />
  </g>
</svg>
