<?xml version="1.0" encoding="UTF-8" standalone="no"?>
<!-- Created with Inkscape (http://www.inkscape.org/) -->

<svg
   width="10.16mm"
   height="128.5mm"
   viewBox="0 0 10.16 128.5"
   version="1.1"
   id="svg1"
   inkscape:version="1.3 (0e150ed, 2023-07-21)"
   sodipodi:docname="SimpleSampleAndHold.svg"
   xmlns:inkscape="http://www.inkscape.org/namespaces/inkscape"
   xmlns:sodipodi="http://sodipodi.sourceforge.net/DTD/sodipodi-0.dtd"
   xmlns="http://www.w3.org/2000/svg"
   xmlns:svg="http://www.w3.org/2000/svg">
  <sodipodi:namedview
     id="namedview1"
     pagecolor="#505050"
     bordercolor="#eeeeee"
     borderopacity="1"
     inkscape:showpageshadow="0"
     inkscape:pageopacity="0"
     inkscape:pagecheckerboard="0"
     inkscape:deskcolor="#d1d1d1"
     inkscape:document-units="mm"
     showgrid="false"
     inkscape:zoom="0.90396304"
     inkscape:cx="57.524476"
     inkscape:cy="245.58526"
     inkscape:window-width="1288"
     inkscape:window-height="803"
     inkscape:window-x="42"
     inkscape:window-y="66"
     inkscape:window-maximized="0"
     inkscape:current-layer="layer1">
    <inkscape:grid
       id="grid2"
       units="px"
       originx="0"
       originy="0"
       spacingx="0.26458334"
       spacingy="0.26458334"
       empcolor="#0099e5"
       empopacity="0.30196078"
       color="#0099e5"
       opacity="0.14901961"
       empspacing="5"
       dotted="false"
       gridanglex="30"
       gridanglez="30"
       visible="false" />
  </sodipodi:namedview>
  <defs
     id="defs1" />
  <g
     inkscape:label="Layer 1"
     inkscape:groupmode="layer"
     id="layer1"
     style="display:inline">
    <rect
       style="display:inline;vector-effect:none;fill:#e6e6e6;fill-opacity:1;fill-rule:evenodd;stroke:none;stroke-width:0.374906;stroke-linecap:butt;stroke-linejoin:miter;stroke-miterlimit:4;stroke-dasharray:none;stroke-dashoffset:0;stroke-opacity:1;paint-order:normal"
       id="rect420"
       width="10.16"
       height="128.5"
       x="3.2981237e-07"
       y="0" />
    <rect
       style="display:inline;fill:#800000;stroke-width:0.332781"
       id="rect8"
       width="10.017269"
       height="15.846818"
       x="0.048522394"
       y="96.904289" />
    <path
       style="font-size:3.175px;font-family:Sans;-inkscape-font-specification:'Sans, Normal';fill:#1a1a1a;stroke-width:0.264583"
       d="m 2.1858157,29.98271 q 0,0.134875 -0.063562,0.26665 -0.062012,0.131775 -0.1751831,0.223242 -0.1240234,0.09922 -0.2899048,0.15503 -0.164331,0.05581 -0.396875,0.05581 -0.2495971,0 -0.44958494,-0.04651 -0.1984375,-0.04651 -0.40462646,-0.137977 v -0.384472 h 0.0217041 q 0.17518311,0.145727 0.40462646,0.224792 0.22944334,0.07906 0.43098144,0.07906 0.2852539,0 0.4433838,-0.10697 0.1596802,-0.10697 0.1596802,-0.285254 0,-0.153479 -0.075964,-0.226343 Q 1.7160769,29.726912 1.5625979,29.686604 1.446326,29.655598 1.3099002,29.635444 1.1750247,29.61529 1.023096,29.584285 0.71613799,29.519172 0.56730987,29.362593 0.42003204,29.204463 0.42003204,28.951765 q 0,-0.289905 0.24494628,-0.47439 0.24494629,-0.186035 0.62166748,-0.186035 0.243396,0 0.4464844,0.04651 0.2030883,0.04651 0.3596679,0.114722 v 0.362768 H 2.071094 Q 1.9393191,28.703718 1.7238284,28.630854 1.509888,28.55644 1.2850955,28.55644 q -0.2464966,0 -0.39687499,0.10232 -0.14882812,0.102319 -0.14882812,0.26355 0,0.144177 0.0744141,0.226342 0.0744141,0.08217 0.26199955,0.125574 0.099219,0.0217 0.2821533,0.05271 0.1829345,0.03101 0.3100586,0.06356 0.2573486,0.06821 0.3875732,0.206189 0.1302246,0.137976 0.1302246,0.386023 z m 0.782898,-1.362708 H 2.6400516 v -0.302307 h 0.3286621 z m -0.018603,2.021582 H 2.6586551 v -1.731677 h 0.2914551 z m 1.9812744,-0.196887 q 0,0.440283 -0.1999878,0.646472 -0.1999878,0.206189 -0.6154663,0.206189 -0.1379761,0 -0.269751,-0.02015 -0.1302246,-0.0186 -0.2573486,-0.05426 v -0.297656 h 0.015503 q 0.071314,0.02791 0.2263428,0.06821 0.1550293,0.04186 0.3100586,0.04186 0.1488281,0 0.2464966,-0.03566 0.097668,-0.03566 0.1519287,-0.09922 0.05426,-0.06046 0.077515,-0.145727 0.023254,-0.08527 0.023254,-0.190686 v -0.15813 q -0.1317749,0.10542 -0.2526977,0.15813 -0.1193726,0.05116 -0.3054077,0.05116 -0.3100586,0 -0.4929932,-0.223242 -0.1813843,-0.224792 -0.1813843,-0.632519 0,-0.223242 0.062012,-0.384473 0.063562,-0.162781 0.1720825,-0.280603 0.100769,-0.110071 0.2449463,-0.170532 0.1441772,-0.06201 0.2868042,-0.06201 0.1503784,0 0.2511474,0.03101 0.1023193,0.02946 0.2154907,0.09147 l 0.018604,-0.07441 H 4.9313846 Z M 4.6399295,30.165644 v -0.944128 q -0.1162719,-0.05271 -0.217041,-0.07441 -0.099219,-0.02325 -0.1984375,-0.02325 -0.2402954,0 -0.3782715,0.16123 -0.137976,0.161231 -0.137976,0.468189 0,0.291455 0.1023193,0.441833 0.1023193,0.150378 0.3395142,0.150378 0.127124,0 0.254248,-0.04806 0.1286743,-0.04961 0.2356445,-0.131775 z m 2.3130373,0.47594 H 6.6615117 v -0.985986 q 0,-0.119372 -0.013953,-0.223242 -0.013953,-0.10542 -0.05116,-0.164331 -0.038757,-0.06511 -0.1116211,-0.09612 -0.072864,-0.03256 -0.1891357,-0.03256 -0.1193726,0 -0.2495972,0.05891 -0.1302246,0.05891 -0.2495972,0.150378 v 1.292944 h -0.291455 v -1.731677 h 0.291455 v 0.192237 q 0.1364258,-0.113172 0.2821534,-0.176734 0.1457275,-0.06356 0.2992065,-0.06356 0.280603,0 0.4278808,0.168982 0.1472779,0.168982 0.1472779,0.486792 z m 1.9068602,0 H 8.5699223 V 30.4571 q -0.038757,0.02635 -0.10542,0.07441 -0.065112,0.04651 -0.127124,0.07441 -0.072864,0.03566 -0.1674316,0.05891 -0.094568,0.0248 -0.2216919,0.0248 -0.2340943,0 -0.396875,-0.155029 -0.1627808,-0.155029 -0.1627808,-0.395325 0,-0.196887 0.083716,-0.31781 0.085266,-0.122473 0.2418457,-0.192236 0.1581299,-0.06976 0.3798218,-0.09457 0.2216919,-0.0248 0.47594,-0.03721 v -0.04496 q 0,-0.09922 -0.035657,-0.164331 -0.034106,-0.06511 -0.099219,-0.10232 -0.062012,-0.03566 -0.1488282,-0.04806 -0.086816,-0.0124 -0.1813842,-0.0124 -0.1147217,0 -0.2557984,0.03101 -0.1410766,0.02946 -0.291455,0.08682 H 7.542078 v -0.296106 q 0.085266,-0.02325 0.2464966,-0.05116 0.1612305,-0.02791 0.3178101,-0.02791 0.1829345,0 0.31781,0.03101 0.1364258,0.02946 0.2356445,0.102319 0.097668,0.07131 0.1488282,0.184485 0.05116,0.113172 0.05116,0.280603 z m -0.2899047,-0.42633 v -0.482141 q -0.1333252,0.0078 -0.3147095,0.02325 -0.179834,0.0155 -0.2852539,0.04496 -0.1255737,0.03566 -0.2030884,0.111621 -0.077515,0.07441 -0.077515,0.206189 0,0.148828 0.089917,0.224792 0.089917,0.07441 0.2744018,0.07441 0.153479,0 0.280603,-0.05891 0.127124,-0.06046 0.2356446,-0.144177 z m 1.145666,0.42633 H 9.4241332 v -2.412255 h 0.2914551 z"
       id="text2"
       inkscape:label="Signal"
       aria-label="Signal" />
    <path
       style="font-size:3.175px;font-family:Sans;-inkscape-font-specification:'Sans, Normal';fill:#1a1a1a;stroke-width:0.264583"
       d="m 4.6174895,55.624789 q -0.085266,0.03721 -0.1550292,0.06976 -0.068213,0.03256 -0.179834,0.06821 -0.094568,0.02945 -0.206189,0.04961 -0.1100708,0.0217 -0.243396,0.0217 -0.2511474,0 -0.4573364,-0.06976 -0.2046387,-0.07131 -0.3565674,-0.221692 -0.1488281,-0.147278 -0.2325439,-0.373621 -0.083716,-0.227893 -0.083716,-0.52865 0,-0.285253 0.080615,-0.510046 0.080615,-0.224792 0.2325439,-0.379822 0.1472779,-0.150378 0.3550171,-0.229443 0.2092896,-0.07906 0.4635376,-0.07906 0.1860352,0 0.37052,0.04496 0.1860352,0.04496 0.4123779,0.15813 v 0.364319 h -0.023254 q -0.1906861,-0.15968 -0.3782715,-0.232544 -0.1875855,-0.07286 -0.4015259,-0.07286 -0.1751831,0 -0.3162598,0.05736 -0.1395263,0.05581 -0.2495971,0.175183 -0.1069702,0.116272 -0.1674317,0.294556 -0.058911,0.176733 -0.058911,0.409277 0,0.243396 0.065112,0.41858 0.066663,0.175183 0.1705322,0.285253 0.1085205,0.114722 0.2526978,0.170533 0.1457275,0.05426 0.306958,0.05426 0.2216919,0 0.4154785,-0.07596 0.1937866,-0.07596 0.3627685,-0.227894 h 0.021704 z m 0.7053834,0.167432 H 5.0314178 v -2.412256 h 0.2914551 z m 2.1487061,0 H 7.0871063 L 6.3925751,55.034128 6.2034393,55.213962 v 0.578259 H 5.9119842 v -2.412256 h 0.2914551 v 1.547193 l 0.8418091,-0.866614 h 0.3674194 l -0.804602,0.799951 z"
       id="text2-0"
       inkscape:label="Clk"
       aria-label="Clk" />
    <path
       style="font-size:3.175px;font-family:Sans;-inkscape-font-specification:'Sans, Normal';fill:#f9f9f9;stroke-width:0.264583"
       d="m 4.1895835,108.41421 q 0.1410767,0.15503 0.2154907,0.37982 0.075964,0.22479 0.075964,0.51005 0,0.28525 -0.077515,0.5116 -0.075964,0.22479 -0.2139404,0.37517 -0.1426269,0.15658 -0.3379639,0.23564 -0.1937866,0.0791 -0.4433837,0.0791 -0.243396,0 -0.4433838,-0.0806 -0.1984375,-0.0806 -0.3379639,-0.23409 -0.1395263,-0.15348 -0.2154907,-0.37672 -0.074414,-0.22325 -0.074414,-0.51005 0,-0.28215 0.074414,-0.5054 0.074414,-0.22479 0.217041,-0.38447 0.1364258,-0.15193 0.3379639,-0.23254 0.2030884,-0.0806 0.4418335,-0.0806 0.2480468,0 0.444934,0.0822 0.1984375,0.0806 0.3364136,0.23099 z m -0.027905,0.88987 q 0,-0.44959 -0.201538,-0.69298 -0.2015381,-0.24495 -0.550354,-0.24495 -0.3519165,0 -0.5534546,0.24495 -0.1999878,0.24339 -0.1999878,0.69298 0,0.45423 0.2046387,0.69608 0.2046386,0.2403 0.5488037,0.2403 0.344165,0 0.5472534,-0.2403 0.2046386,-0.24185 0.2046386,-0.69608 z m 2.2184693,1.15342 h -0.291455 v -0.19224 q -0.1472779,0.11627 -0.2821534,0.17828 -0.1348754,0.062 -0.2976562,0.062 -0.2728516,0 -0.4247803,-0.16589 -0.1519287,-0.16743 -0.1519287,-0.48989 v -1.12396 H 5.223629 v 0.98599 q 0,0.13177 0.012402,0.22634 0.012402,0.093 0.05271,0.15968 0.041858,0.0682 0.1085205,0.0992 0.066663,0.031 0.1937866,0.031 0.1131714,0 0.2464966,-0.0589 0.1348755,-0.0589 0.2511475,-0.15038 v -1.29294 h 0.291455 z m 1.4727785,-0.0155 q -0.082166,0.0217 -0.179834,0.0357 -0.096118,0.014 -0.1720825,0.014 -0.2651001,0 -0.4030762,-0.14262 -0.137976,-0.14263 -0.137976,-0.45734 v -0.92087 H 6.7630701 v -0.24495 h 0.1968872 v -0.49764 h 0.291455 v 0.49764 H 7.852926 v 0.24495 H 7.2514123 v 0.78909 q 0,0.13643 0.0062,0.21395 0.0062,0.076 0.043408,0.14262 0.034107,0.062 0.093018,0.0915 0.060461,0.0279 0.1829346,0.0279 0.071313,0 0.1488281,-0.0202 0.077515,-0.0217 0.1116211,-0.0357 h 0.015503 z"
       id="text2-0-2"
       inkscape:label="Out"
       aria-label="Out" />
    <path
       style="font-size:3.52778px;font-family:Sans;-inkscape-font-specification:'Sans, Normal';fill:#1a1a1a;stroke-width:0.264583"
       d="m 3.5302075,3.5640913 q 0,0.1498617 -0.070625,0.2962784 -0.068902,0.1464166 -0.194648,0.248047 -0.1378039,0.1102431 -0.3221166,0.1722549 -0.1825902,0.062012 -0.4409725,0.062012 -0.2773304,0 -0.4995392,-0.051676 Q 1.7818204,4.2393304 1.5527214,4.1377 V 3.7105079 h 0.024116 q 0.194648,0.1619196 0.4495853,0.2497696 0.2549372,0.08785 0.4788686,0.08785 0.3169489,0 0.4926489,-0.1188559 0.1774226,-0.1188559 0.1774226,-0.316949 0,-0.1705323 -0.084405,-0.2514921 Q 3.0082752,3.2798707 2.8377429,3.2350844 2.7085517,3.2006335 2.5569674,3.1782403 2.4071057,3.1558472 2.2382959,3.1213962 1.8972312,3.0490492 1.7318665,2.8750717 1.5682244,2.6993717 1.5682244,2.4185963 q 0,-0.3221167 0.2721627,-0.5271 0.2721627,-0.2067058 0.6907421,-0.2067058 0.2704402,0 0.4960941,0.051676 0.2256539,0.051677 0.3996313,0.1274686 V 2.267012 H 3.4027389 Q 3.2563223,2.1429885 3.016888,2.0620287 2.7791762,1.9793463 2.5294066,1.9793463 q -0.2738852,0 -0.4409725,0.1136882 -0.1653647,0.1136883 -0.1653647,0.2928333 0,0.1601971 0.082682,0.2514922 0.082682,0.091295 0.2911107,0.1395264 0.1102432,0.024116 0.3135039,0.058567 0.2032608,0.034451 0.3445098,0.070625 0.2859431,0.075792 0.4306372,0.229099 0.1446941,0.1533068 0.1446941,0.4289147 z M 5.097727,2.2446188 q 0,-0.1636421 -0.098185,-0.2566597 -0.096463,-0.09474 -0.248047,-0.09474 -0.1584745,0 -0.2583824,0.106798 -0.099908,0.1050755 -0.099908,0.2583823 0,0.1291912 0.067179,0.229099 0.068902,0.099908 0.2945559,0.2359892 0.1688098,-0.060289 0.2549372,-0.1757 0.08785,-0.1171333 0.08785,-0.3031686 z M 5.4319015,3.7535716 4.6085231,2.9508639 q -0.053399,0.025838 -0.106798,0.068902 -0.053399,0.041341 -0.106798,0.1136882 -0.048231,0.067179 -0.079237,0.1619196 -0.031006,0.09474 -0.031006,0.2135961 0,0.2514921 0.1464167,0.4065215 0.1481392,0.1533069 0.4185794,0.1533069 0.160197,0 0.3169489,-0.077515 0.1584745,-0.079237 0.2652726,-0.2377118 z m 0.5184872,-1.023194 v 0.1653647 q 0,0.1653647 -0.043064,0.3720706 -0.043064,0.2067058 -0.1464166,0.3944636 l 0.6511235,0.633898 H 5.9882847 L 5.5938211,3.9103236 q -0.1980932,0.2446019 -0.404799,0.3427872 -0.2067059,0.096463 -0.4254696,0.096463 -0.3582902,0 -0.5960019,-0.2084284 Q 3.9315614,3.9309942 3.9315614,3.591652 q 0,-0.1584745 0.044786,-0.2738852 Q 4.021134,3.202356 4.0814232,3.1179511 4.1417124,3.0369913 4.2312849,2.9663668 4.3208575,2.8940198 4.4121525,2.8406207 4.2226722,2.7165972 4.1382673,2.5908512 4.0555849,2.4651051 4.0555849,2.2739022 q 0,-0.1154108 0.044786,-0.2187637 0.046509,-0.1050755 0.1378039,-0.191203 0.086127,-0.082682 0.2239314,-0.1343588 0.1395264,-0.051676 0.3066137,-0.051676 0.2980009,0 0.4823136,0.1515843 0.1843128,0.1498617 0.1843128,0.3806833 0,0.075792 -0.020671,0.1722548 -0.020671,0.09474 -0.070625,0.1705324 -0.055122,0.084405 -0.156752,0.1619196 -0.1016304,0.077515 -0.2635499,0.1326362 l 0.6390656,0.6235627 q 0.024116,-0.068902 0.036173,-0.1515843 0.012058,-0.082682 0.01378,-0.1722549 0.00345,-0.096463 0.00172,-0.2153186 0,-0.1188558 0,-0.2015382 z M 8.6031138,4.2961745 H 8.2620491 V 3.0404364 H 6.9821953 V 4.2961745 H 6.6411306 V 1.7312993 H 6.9821953 V 2.7372678 H 8.2620491 V 1.7312993 h 0.3410647 z"
       id="text3"
       inkscape:label="S&amp;H"
       aria-label="S&amp;H" />
  </g>
  <g
     inkscape:groupmode="layer"
     id="layer2"
     inkscape:label="components"
     style="display:inline">
    <ellipse
       style="fill:#0000ff;stroke-width:0.170307"
       id="path2"
       cx="5.1491008"
       cy="103.32995"
       rx="3.9461007"
       ry="3.523304"
       inkscape:label="out" />
    <ellipse
       style="fill:#00ff00;stroke-width:0.170307"
       id="ellipse3-9-8"
       cx="5.1491008"
       cy="48.665596"
       rx="3.9461007"
       ry="3.523304"
       inkscape:label="clock" />
    <ellipse
       style="fill:#00ff00;stroke-width:0.170307"
       id="ellipse3-9-8-8"
       cx="5.1491222"
       cy="23.631573"
       rx="3.9461007"
       ry="3.523304"
       inkscape:label="signal" />
  </g>
</svg>
