<?xml version="1.0" encoding="UTF-8" standalone="no"?>
<!-- Created with Inkscape (http://www.inkscape.org/) -->

<svg
   width="10.16mm"
   height="128.5mm"
   viewBox="0 0 10.16 128.5"
   version="1.1"
   id="svg1"
   inkscape:version="1.3 (0e150ed, 2023-07-21)"
   sodipodi:docname="SimpleMult.svg"
   xmlns:inkscape="http://www.inkscape.org/namespaces/inkscape"
   xmlns:sodipodi="http://sodipodi.sourceforge.net/DTD/sodipodi-0.dtd"
   xmlns="http://www.w3.org/2000/svg"
   xmlns:svg="http://www.w3.org/2000/svg">
  <sodipodi:namedview
     id="namedview1"
     pagecolor="#505050"
     bordercolor="#eeeeee"
     borderopacity="1"
     inkscape:showpageshadow="0"
     inkscape:pageopacity="0"
     inkscape:pagecheckerboard="0"
     inkscape:deskcolor="#d1d1d1"
     inkscape:document-units="mm"
     showgrid="false"
     inkscape:zoom="0.91432405"
     inkscape:cx="73.278177"
     inkscape:cy="257.02047"
     inkscape:window-width="1288"
     inkscape:window-height="803"
     inkscape:window-x="42"
     inkscape:window-y="66"
     inkscape:window-maximized="0"
     inkscape:current-layer="layer1">
    <inkscape:grid
       id="grid2"
       units="px"
       originx="0"
       originy="0"
       spacingx="0.26458334"
       spacingy="0.26458334"
       empcolor="#0099e5"
       empopacity="0.30196078"
       color="#0099e5"
       opacity="0.14901961"
       empspacing="5"
       dotted="false"
       gridanglex="30"
       gridanglez="30"
       visible="false" />
  </sodipodi:namedview>
  <defs
     id="defs1" />
  <g
     inkscape:label="Layer 1"
     inkscape:groupmode="layer"
     id="layer1"
     style="display:inline">
    <rect
       style="display:inline;vector-effect:none;fill:#e6e6e6;fill-opacity:1;fill-rule:evenodd;stroke:none;stroke-width:0.374906;stroke-linecap:butt;stroke-linejoin:miter;stroke-miterlimit:4;stroke-dasharray:none;stroke-dashoffset:0;stroke-opacity:1;paint-order:normal"
       id="rect420"
       width="10.16"
       height="128.5"
       x="3.2981237e-07"
       y="0" />
    <rect
       style="display:inline;fill:#800000;stroke-width:0.740774"
       id="rect8"
       width="10.017269"
       height="78.523117"
       x="0.048522394"
       y="42.425709" />
    <path
       style="font-size:3.52777px;font-family:Sans;-inkscape-font-specification:'Sans, Normal';display:inline;stroke-width:0.264583"
       d="M 3.8584494,9.9111244 H 3.5173857 V 7.7011005 L 2.8042525,9.2048813 H 2.6009923 L 1.8930267,7.7011005 V 9.9111244 H 1.5743561 V 7.3462564 H 2.039443 L 2.7232929,8.7742453 3.3847498,7.3462564 h 0.4736996 z m 2.2582552,0 H 5.7928663 V 9.6975289 q -0.1636417,0.1291908 -0.313503,0.1980926 -0.1498613,0.068902 -0.3307284,0.068902 -0.3031678,0 -0.4719771,-0.1843122 Q 4.5078485,9.5941763 4.5078485,9.2358871 V 7.9870428 h 0.3238383 v 1.0955379 q 0,0.1464163 0.01378,0.2514914 0.01378,0.1033527 0.058567,0.1774221 0.046509,0.075792 0.1205781,0.1102428 0.074069,0.034451 0.215318,0.034451 0.1257457,0 0.2738845,-0.065457 Q 5.6636757,9.525274 5.7928665,9.4236442 V 7.9870428 h 0.3238383 z m 0.9646245,0 H 6.7574908 V 7.230846 h 0.3238383 z m 1.6398617,-0.017226 q -0.091295,0.024116 -0.1998151,0.039619 -0.1067977,0.015503 -0.1912024,0.015503 -0.294555,0 -0.4478614,-0.158474 Q 7.7290055,9.6320722 7.7290055,9.2823958 V 8.2592047 H 7.5102424 V 7.9870428 H 7.7290055 V 7.4341061 H 8.0528437 V 7.9870428 H 8.7211908 V 8.2592047 H 8.0528437 v 0.8767749 q 0,0.1515838 0.00689,0.237711 0.00689,0.084405 0.048231,0.1584741 0.037896,0.068902 0.1033527,0.1016301 0.067179,0.031006 0.2032602,0.031006 0.079237,0 0.1653642,-0.022393 0.086127,-0.024116 0.1240231,-0.039618 h 0.017226 z"
       id="text1"
       aria-label="Mult"
       inkscape:label="Mult" />
    <path
       d="M 1.6414579,30.186129 H 0.62860205 V 29.924302 H 0.96449813 V 27.883087 H 0.62860205 V 27.621261 H 1.6414579 v 0.261826 H 1.3055618 v 2.041215 h 0.3358961 z m 2.1635152,0 H 3.4811348 v -1.095538 q 0,-0.132636 -0.015503,-0.248047 -0.015503,-0.117133 -0.056844,-0.182589 -0.043064,-0.07235 -0.1240232,-0.106798 -0.08096,-0.03617 -0.2101503,-0.03617 -0.1326359,0 -0.2773296,0.06546 -0.1446937,0.06546 -0.2773296,0.167087 v 1.436602 H 2.196117 v -1.924082 h 0.3238383 v 0.213595 q 0.1515839,-0.125745 0.313503,-0.19637 0.1619191,-0.07062 0.332451,-0.07062 0.3117805,0 0.4754221,0.187757 0.1636417,0.187758 0.1636417,0.540879 z m 2.3168217,-0.985296 q 0,0.234266 -0.067179,0.428914 -0.067179,0.192925 -0.1894798,0.327283 -0.1136879,0.127469 -0.2687169,0.198093 -0.1533064,0.0689 -0.3255608,0.0689 -0.1498613,0 -0.2721619,-0.03273 -0.1205781,-0.03273 -0.2463238,-0.10163 v 0.806151 H 4.428534 v -2.63377 h 0.3238383 v 0.201538 q 0.1291908,-0.108521 0.2893874,-0.180867 0.1619191,-0.07407 0.3445088,-0.07407 0.3479539,0 0.5408788,0.263549 0.1946475,0.261827 0.1946475,0.728636 z m -0.3341736,0.0086 q 0,-0.347954 -0.1188555,-0.520208 -0.1188555,-0.172254 -0.3651793,-0.172254 -0.1395261,0 -0.2807747,0.06029 -0.1412486,0.06029 -0.2704394,0.158474 v 1.09037 q 0.1378035,0.06201 0.2359885,0.08441 0.099908,0.02239 0.2256533,0.02239 0.2704394,0 0.4220233,-0.18259 0.1515838,-0.18259 0.1515838,-0.540879 z m 2.4339546,0.976683 H 7.8977376 v -0.213596 q -0.1636417,0.129191 -0.313503,0.198093 -0.1498613,0.0689 -0.3307285,0.0689 -0.3031677,0 -0.471977,-0.184312 Q 6.6127198,29.869181 6.6127198,29.510891 V 28.262047 H 6.936558 v 1.095538 q 0,0.146416 0.01378,0.251491 0.01378,0.103353 0.058567,0.177422 0.046509,0.07579 0.1205781,0.110243 0.074069,0.03445 0.215318,0.03445 0.1257457,0 0.2738845,-0.06546 0.1498613,-0.06546 0.2790521,-0.167086 v -1.436602 h 0.3238382 z m 1.6364165,-0.01723 q -0.091295,0.02412 -0.1998151,0.03962 -0.1067978,0.0155 -0.1912024,0.0155 -0.294555,0 -0.4478614,-0.158474 Q 8.8658069,29.907076 8.8658069,29.5574 v -1.023191 h -0.218763 v -0.272162 h 0.218763 V 27.70911 h 0.3238383 v 0.552937 h 0.6683471 v 0.272162 H 9.1896452 v 0.876775 q 0,0.151584 0.00689,0.237711 0.00689,0.08441 0.048231,0.158474 0.037896,0.0689 0.1033526,0.10163 0.067179,0.03101 0.2032602,0.03101 0.079237,0 0.1653643,-0.02239 0.086127,-0.02412 0.1240231,-0.03962 h 0.017225 z"
       id="text2"
       style="font-size:3.52777px;font-family:Sans;-inkscape-font-specification:'Sans, Normal';stroke-width:0.264583"
       inkscape:label="Input"
       aria-label="Input" />
    <path
       d="m 3.3434607,53.793267 q 0.1567515,0.172254 0.2394336,0.422023 0.084405,0.249769 0.084405,0.566717 0,0.316948 -0.086127,0.568439 -0.084405,0.249769 -0.2377111,0.416856 -0.158474,0.173977 -0.3755146,0.261827 -0.215318,0.08785 -0.4926475,0.08785 -0.2704394,0 -0.4926476,-0.08957 -0.2204856,-0.08957 -0.3755146,-0.260104 -0.155029,-0.170532 -0.2394336,-0.418578 -0.082682,-0.248047 -0.082682,-0.566717 0,-0.313503 0.082682,-0.561549 0.082682,-0.249769 0.2411562,-0.427191 0.1515838,-0.16881 0.3755145,-0.258382 0.2256533,-0.08957 0.4909251,-0.08957 0.275607,0 0.4943701,0.0913 0.2204856,0.08957 0.373792,0.256659 z m -0.031006,0.98874 q 0,-0.499538 -0.2239307,-0.769977 -0.2239307,-0.272162 -0.6115031,-0.272162 -0.3910175,0 -0.6149482,0.272162 -0.2222082,0.270439 -0.2222082,0.769977 0,0.504705 0.2273758,0.773422 0.2273758,0.266994 0.6097806,0.266994 0.3824048,0 0.608058,-0.266994 0.2273758,-0.268717 0.2273758,-0.773422 z M 5.7774153,56.06358 H 5.453577 v -0.213596 q -0.1636417,0.129191 -0.313503,0.198093 -0.1498613,0.0689 -0.3307284,0.0689 -0.3031678,0 -0.4719771,-0.184312 -0.1688093,-0.186035 -0.1688093,-0.544324 v -1.248844 h 0.3238383 v 1.095538 q 0,0.146416 0.01378,0.251491 0.01378,0.103353 0.058567,0.177422 0.046509,0.07579 0.1205781,0.110243 0.074069,0.03445 0.215318,0.03445 0.1257457,0 0.2738845,-0.06546 Q 5.3243862,55.67773 5.453577,55.5761 v -1.436602 h 0.3238383 z m 1.6364166,-0.01723 q -0.091295,0.02412 -0.1998151,0.03962 -0.1067977,0.0155 -0.1912024,0.0155 -0.294555,0 -0.4478614,-0.158475 -0.1533064,-0.158474 -0.1533064,-0.50815 V 54.41166 H 6.2028835 v -0.272162 h 0.2187631 v -0.552937 h 0.3238383 v 0.552937 h 0.668347 v 0.272162 h -0.668347 v 0.876775 q 0,0.151584 0.00689,0.237711 0.00689,0.0844 0.048231,0.158474 0.037896,0.0689 0.1033526,0.10163 0.067179,0.03101 0.2032602,0.03101 0.079237,0 0.1653642,-0.02239 0.086127,-0.02412 0.1240232,-0.03962 h 0.017225 z m 1.9395844,0.01723 H 7.9650459 V 55.801753 H 8.4990345 V 54.082654 H 7.9650459 v -0.234266 q 0.1085202,0 0.2325434,-0.01723 0.1240232,-0.01895 0.1877573,-0.0534 0.079237,-0.04306 0.1240232,-0.108521 0.046509,-0.06718 0.053399,-0.179144 h 0.2669943 v 2.311654 h 0.5236534 z"
       id="text2-7"
       style="font-size:3.52777px;font-family:Sans;-inkscape-font-specification:'Sans, Normal';fill:#f9f9f9;stroke-width:0.264583"
       inkscape:label="Out1"
       aria-label="Out1" />
    <path
       d="m 3.3813566,75.489643 q 0.1567515,0.172255 0.2394337,0.422024 0.084405,0.249769 0.084405,0.566717 0,0.316948 -0.086127,0.568439 -0.084405,0.249769 -0.2377111,0.416856 -0.158474,0.173977 -0.3755145,0.261826 -0.215318,0.08785 -0.4926476,0.08785 -0.2704394,0 -0.4926476,-0.08957 -0.2204856,-0.08957 -0.3755146,-0.260104 -0.1550289,-0.170532 -0.2394336,-0.418578 -0.082682,-0.248047 -0.082682,-0.566717 0,-0.313503 0.082682,-0.56155 0.082682,-0.249769 0.2411562,-0.427191 0.1515838,-0.168809 0.3755146,-0.258381 0.2256532,-0.08957 0.490925,-0.08957 0.275607,0 0.4943701,0.09129 0.2204856,0.08957 0.373792,0.256659 z m -0.031006,0.988741 q 0,-0.499538 -0.2239308,-0.769978 -0.2239307,-0.272161 -0.6115031,-0.272161 -0.3910175,0 -0.6149482,0.272161 -0.2222081,0.27044 -0.2222081,0.769978 0,0.504705 0.2273758,0.773422 0.2273758,0.266994 0.6097805,0.266994 0.3824048,0 0.608058,-0.266994 0.2273759,-0.268717 0.2273759,-0.773422 z m 2.4649603,1.281572 H 5.4914729 v -0.213595 q -0.1636417,0.129191 -0.313503,0.198092 -0.1498613,0.0689 -0.3307284,0.0689 -0.3031678,0 -0.4719771,-0.184312 -0.1688093,-0.186035 -0.1688093,-0.544324 v -1.248844 h 0.3238383 v 1.095538 q 0,0.146416 0.01378,0.251491 0.01378,0.103353 0.058566,0.177422 0.046509,0.07579 0.1205781,0.110243 0.074069,0.03445 0.215318,0.03445 0.1257457,0 0.2738845,-0.06546 0.1498613,-0.06546 0.2790521,-0.167087 v -1.436601 h 0.3238383 z m 1.6364166,-0.01722 q -0.091295,0.02412 -0.1998151,0.03962 -0.1067977,0.0155 -0.1912023,0.0155 -0.2945551,0 -0.4478615,-0.158474 -0.1533064,-0.158474 -0.1533064,-0.50815 V 76.108037 H 6.2407794 v -0.272162 h 0.2187631 v -0.552937 h 0.3238383 v 0.552937 h 0.668347 v 0.272162 h -0.668347 v 0.876775 q 0,0.151583 0.00689,0.237711 0.00689,0.0844 0.048231,0.158474 0.037896,0.0689 0.1033526,0.10163 0.067179,0.03101 0.2032602,0.03101 0.079237,0 0.1653642,-0.02239 0.086127,-0.02412 0.1240232,-0.03962 h 0.017225 z m 2.0860007,0.01722 H 7.8014041 v -0.360011 q 0.1808671,-0.155029 0.3617343,-0.310058 0.1825896,-0.155029 0.3393411,-0.308336 0.3307285,-0.320393 0.4530291,-0.50815 0.1223006,-0.18948 0.1223006,-0.408243 0,-0.199815 -0.1326359,-0.31178 Q 8.81426,75.43969 8.5782715,75.43969 q -0.1567515,0 -0.3393412,0.05512 -0.1825897,0.05512 -0.3565666,0.168809 h -0.017225 v -0.361734 q 0.1223006,-0.06029 0.3255608,-0.110243 0.2049827,-0.04995 0.3961851,-0.04995 0.3944625,0 0.6183933,0.191202 0.2239307,0.18948 0.2239307,0.515041 0,0.146416 -0.037896,0.273884 -0.036173,0.125746 -0.1085203,0.239434 -0.067179,0.106797 -0.158474,0.21015 -0.089572,0.103353 -0.2187631,0.229098 -0.1843122,0.180867 -0.3806822,0.351399 -0.19637,0.16881 -0.3669019,0.313503 h 1.3797578 z"
       id="text2-7-3"
       style="font-size:3.52777px;font-family:Sans;-inkscape-font-specification:'Sans, Normal';fill:#f9f9f9;stroke-width:0.264583"
       inkscape:label="Out2"
       aria-label="Out2" />
    <path
       d="m 3.3813595,95.597973 q 0.1567515,0.172255 0.2394336,0.422023 0.084405,0.249769 0.084405,0.566717 0,0.316949 -0.086127,0.56844 -0.084405,0.249769 -0.2377111,0.416856 -0.158474,0.173977 -0.3755146,0.261826 -0.215318,0.08785 -0.4926476,0.08785 -0.2704394,0 -0.4926475,-0.08957 -0.2204857,-0.08957 -0.3755146,-0.260104 -0.155029,-0.170532 -0.2394336,-0.418579 -0.082682,-0.248046 -0.082682,-0.566717 0,-0.313503 0.082682,-0.561549 0.082682,-0.249769 0.2411561,-0.427191 0.1515839,-0.168809 0.3755146,-0.258381 0.2256533,-0.08957 0.490925,-0.08957 0.2756071,0 0.4943702,0.0913 0.2204856,0.08957 0.373792,0.256659 z m -0.031006,0.98874 q 0,-0.499537 -0.2239307,-0.769977 -0.2239307,-0.272162 -0.6115031,-0.272162 -0.3910175,0 -0.6149482,0.272162 -0.2222082,0.27044 -0.2222082,0.769977 0,0.504706 0.2273758,0.773423 0.2273758,0.266994 0.6097806,0.266994 0.3824047,0 0.608058,-0.266994 0.2273758,-0.268717 0.2273758,-0.773423 z M 5.815314,97.868286 H 5.4914758 v -0.213595 q -0.1636417,0.12919 -0.313503,0.198092 -0.1498613,0.0689 -0.3307285,0.0689 -0.3031677,0 -0.471977,-0.184312 Q 4.206458,97.551338 4.206458,97.193049 v -1.248844 h 0.3238382 v 1.095537 q 0,0.146417 0.01378,0.251492 0.01378,0.103353 0.058566,0.177422 0.046509,0.07579 0.1205781,0.110243 0.074069,0.03445 0.215318,0.03445 0.1257457,0 0.2738845,-0.06546 0.1498613,-0.06546 0.2790521,-0.167087 V 95.944205 H 5.815314 Z m 1.6364167,-0.01722 q -0.091295,0.02411 -0.1998151,0.03962 -0.1067977,0.0155 -0.1912024,0.0155 -0.294555,0 -0.4478614,-0.158474 -0.1533064,-0.158474 -0.1533064,-0.50815 V 96.216366 H 6.2407823 v -0.272161 h 0.2187631 v -0.552937 h 0.3238382 v 0.552937 h 0.6683471 v 0.272161 H 6.7833836 v 0.876775 q 0,0.151584 0.00689,0.237711 0.00689,0.08441 0.048231,0.158474 0.037896,0.0689 0.1033527,0.101631 0.067179,0.031 0.2032602,0.031 0.079237,0 0.1653642,-0.02239 0.086127,-0.02412 0.1240232,-0.03962 h 0.017225 z m 1.8603474,-1.217839 q 0.082682,0.07407 0.1360809,0.186035 0.053399,0.111965 0.053399,0.289387 0,0.1757 -0.063734,0.322116 -0.063734,0.146416 -0.1791446,0.254936 -0.1291908,0.120579 -0.3048903,0.179145 -0.1739769,0.05684 -0.3824048,0.05684 -0.2135954,0 -0.4203007,-0.05168 -0.2067053,-0.04995 -0.3393411,-0.110243 v -0.360012 h 0.025838 q 0.1464163,0.09646 0.3445088,0.160197 0.1980926,0.06373 0.3824048,0.06373 0.1085202,0 0.2308209,-0.03617 0.1223006,-0.03617 0.1980925,-0.106797 0.079237,-0.07579 0.117133,-0.167087 0.039618,-0.0913 0.039618,-0.230821 0,-0.137803 -0.044786,-0.227376 -0.043064,-0.0913 -0.1205781,-0.142971 -0.077514,-0.0534 -0.1877573,-0.07235 -0.1102428,-0.02067 -0.2377111,-0.02067 H 8.4042974 v -0.285943 h 0.1205781 q 0.2618266,0 0.4168556,-0.10852 0.1567515,-0.110243 0.1567515,-0.320393 0,-0.09302 -0.039619,-0.161919 -0.039618,-0.07062 -0.1102428,-0.115411 -0.074069,-0.04479 -0.1584741,-0.06201 -0.084405,-0.01723 -0.1912023,-0.01723 -0.1636417,0 -0.3479539,0.05857 -0.1843122,0.05857 -0.3479539,0.165364 h -0.017225 v -0.360012 q 0.1223007,-0.06029 0.3255609,-0.110242 0.2049827,-0.05168 0.3961851,-0.05168 0.1877573,0 0.3307284,0.03445 0.1429712,0.03445 0.2583816,0.110243 0.1240232,0.08268 0.1877573,0.199815 0.063734,0.117133 0.063734,0.273885 0,0.213595 -0.1515838,0.373792 -0.1498614,0.158474 -0.3548441,0.199815 v 0.02411 q 0.082682,0.01378 0.1894798,0.05857 0.1067978,0.04306 0.1808672,0.10852 z"
       id="text2-7-3-9"
       style="font-size:3.52777px;font-family:Sans;-inkscape-font-specification:'Sans, Normal';fill:#f9f9f9;stroke-width:0.264583"
       inkscape:label="Out3"
       aria-label="Out3" />
    <path
       d="m 3.0513074,116.23875 q 0.1567515,0.17226 0.2394336,0.42202 0.084405,0.24977 0.084405,0.56672 0,0.31695 -0.086127,0.56844 -0.084405,0.24977 -0.2377111,0.41686 -0.158474,0.17397 -0.3755146,0.26182 -0.215318,0.0879 -0.4926475,0.0879 -0.2704394,0 -0.4926476,-0.0896 -0.2204856,-0.0896 -0.3755146,-0.2601 -0.1550289,-0.17054 -0.2394336,-0.41858 -0.0826821,-0.24805 -0.0826821,-0.56672 0,-0.3135 0.0826821,-0.56155 0.082682,-0.24977 0.2411562,-0.42719 0.1515838,-0.16881 0.3755145,-0.25838 0.2256533,-0.0896 0.4909251,-0.0896 0.275607,0 0.4943701,0.0913 0.2204856,0.0896 0.373792,0.25666 z m -0.031006,0.98874 q 0,-0.49954 -0.2239307,-0.76998 -0.2239307,-0.27216 -0.6115031,-0.27216 -0.3910175,0 -0.6149482,0.27216 -0.2222082,0.27044 -0.2222082,0.76998 0,0.50471 0.2273758,0.77342 0.2273759,0.267 0.6097806,0.267 0.3824048,0 0.608058,-0.267 0.2273758,-0.26871 0.2273758,-0.77342 z m 2.4649604,1.28157 H 5.1614237 v -0.21359 q -0.1636417,0.12919 -0.313503,0.19809 -0.1498613,0.0689 -0.3307284,0.0689 -0.3031678,0 -0.4719771,-0.18431 -0.1688093,-0.18603 -0.1688093,-0.54432 v -1.24885 h 0.3238383 v 1.09554 q 0,0.14642 0.01378,0.25149 0.01378,0.10335 0.058567,0.17742 0.046509,0.0758 0.1205781,0.11025 0.074069,0.0345 0.215318,0.0345 0.1257457,0 0.2738845,-0.0655 0.1498613,-0.0655 0.2790521,-0.16709 v -1.4366 H 5.485262 Z m 1.6364166,-0.0172 q -0.091295,0.0241 -0.1998151,0.0396 -0.1067977,0.0155 -0.1912024,0.0155 -0.294555,0 -0.4478614,-0.15847 -0.1533064,-0.15848 -0.1533064,-0.50815 v -1.0232 H 5.9107302 v -0.27216 h 0.2187631 v -0.55293 h 0.3238383 v 0.55293 h 0.668347 v 0.27216 h -0.668347 v 0.87678 q 0,0.15158 0.00689,0.23771 0.00689,0.0844 0.048231,0.15847 0.037896,0.0689 0.1033526,0.10163 0.067179,0.031 0.2032602,0.031 0.079237,0 0.1653642,-0.0224 0.086127,-0.0241 0.1240232,-0.0396 h 0.017225 z m 2.1445671,-0.70452 H 8.8855635 v 0.72174 H 8.5548351 v -0.72174 H 7.3266612 v -0.39619 l 1.2419542,-1.44693 h 0.3169481 v 1.56751 h 0.3806822 z m -0.7114106,-0.27561 v -1.15755 l -0.9939079,1.15755 z"
       id="text2-7-3-9-6"
       style="font-size:3.52777px;font-family:Sans;-inkscape-font-specification:'Sans, Normal';fill:#f9f9f9;stroke-width:0.264583"
       inkscape:label="Out4"
       aria-label="Out4" />
  </g>
  <g
     inkscape:groupmode="layer"
     id="layer2"
     inkscape:label="components"
     style="display:none">
    <ellipse
       style="fill:#0000ff;stroke-width:0.170307"
       id="ellipse3-9"
       cx="5.1491008"
       cy="90.53566"
       rx="3.9461007"
       ry="3.523304"
       inkscape:label="out3" />
    <ellipse
       style="fill:#0000ff;stroke-width:0.170307"
       id="ellipse3-9-83"
       cx="5.2690172"
       cy="111.47594"
       rx="3.9461007"
       ry="3.523304"
       inkscape:label="out3" />
    <ellipse
       style="fill:#0000ff;stroke-width:0.170307"
       id="path2"
       cx="5.1491008"
       cy="70.255676"
       rx="3.9461007"
       ry="3.523304"
       inkscape:label="out2" />
    <ellipse
       style="fill:#0000ff;stroke-width:0.170307"
       id="ellipse3-9-8"
       cx="5.1491008"
       cy="48.665596"
       rx="3.9461007"
       ry="3.523304"
       inkscape:label="out1" />
    <ellipse
       style="fill:#00ff00;stroke-width:0.170307"
       id="ellipse3-9-8-8"
       cx="5.1491222"
       cy="23.631573"
       rx="3.9461007"
       ry="3.523304"
       inkscape:label="in" />
  </g>
</svg>
