<?xml version="1.0" encoding="UTF-8" standalone="no"?>
<!-- Created with Inkscape (http://www.inkscape.org/) -->

<svg
   width="10.16mm"
   height="128.5mm"
   viewBox="0 0 10.16 128.5"
   version="1.1"
   id="svg1"
   inkscape:version="1.3 (0e150ed, 2023-07-21)"
   sodipodi:docname="SimpleVCA.svg"
   xmlns:inkscape="http://www.inkscape.org/namespaces/inkscape"
   xmlns:sodipodi="http://sodipodi.sourceforge.net/DTD/sodipodi-0.dtd"
   xmlns="http://www.w3.org/2000/svg"
   xmlns:svg="http://www.w3.org/2000/svg">
  <sodipodi:namedview
     id="namedview1"
     pagecolor="#505050"
     bordercolor="#eeeeee"
     borderopacity="1"
     inkscape:showpageshadow="0"
     inkscape:pageopacity="0"
     inkscape:pagecheckerboard="0"
     inkscape:deskcolor="#d1d1d1"
     inkscape:document-units="mm"
     showgrid="false"
     inkscape:zoom="1.0497282"
     inkscape:cx="20.957806"
     inkscape:cy="246.73053"
     inkscape:window-width="1288"
     inkscape:window-height="803"
     inkscape:window-x="42"
     inkscape:window-y="38"
     inkscape:window-maximized="0"
     inkscape:current-layer="layer2">
    <inkscape:grid
       id="grid2"
       units="px"
       originx="0"
       originy="0"
       spacingx="0.26458334"
       spacingy="0.26458334"
       empcolor="#0099e5"
       empopacity="0.30196078"
       color="#0099e5"
       opacity="0.14901961"
       empspacing="5"
       dotted="false"
       gridanglex="30"
       gridanglez="30"
       visible="false" />
  </sodipodi:namedview>
  <defs
     id="defs1" />
  <g
     inkscape:label="Layer 1"
     inkscape:groupmode="layer"
     id="layer1"
     style="display:inline">
    <rect
       style="display:inline;vector-effect:none;fill:#e6e6e6;fill-opacity:1;fill-rule:evenodd;stroke:none;stroke-width:0.374906;stroke-linecap:butt;stroke-linejoin:miter;stroke-miterlimit:4;stroke-dasharray:none;stroke-dashoffset:0;stroke-opacity:1;paint-order:normal"
       id="rect420"
       width="10.16"
       height="128.5"
       x="3.2981237e-07"
       y="0" />
    <rect
       style="display:inline;fill:#800000;stroke-width:0.332781"
       id="rect8"
       width="10.017269"
       height="15.846818"
       x="0.048522394"
       y="99.573799" />
    <path
       style="font-size:4.23333px;font-family:Sans;-inkscape-font-specification:'Sans, Normal';stroke-width:0.264583"
       d="M 3.5962823,7.2561787 2.4759382,10.334024 H 1.9302355 L 0.80989143,7.2561787 H 1.2481072 l 0.9653149,2.7078428 0.965315,-2.7078428 z m 2.8442684,2.8546033 q -0.113688,0.04961 -0.2067055,0.09302 -0.09095,0.04341 -0.2397785,0.09095 -0.1260904,0.03927 -0.2749184,0.06615 -0.1467609,0.02894 -0.3245277,0.02894 -0.334863,0 -0.6097814,-0.09302 Q 4.5119879,10.201733 4.3094164,10.001228 4.1109791,9.8048582 3.9993581,9.5030681 3.8877371,9.1992109 3.8877371,8.7982022 q 0,-0.3803383 0.1074869,-0.6800613 Q 4.1027109,7.8184178 4.3052823,7.6117123 4.5016526,7.4112079 4.7786381,7.305788 5.0576906,7.2003682 5.3966877,7.2003682 q 0.2480466,0 0.4940262,0.059945 0.2480467,0.059945 0.5498368,0.2108397 v 0.485758 H 6.4095449 Q 6.1552971,7.7440038 5.9051833,7.6468522 5.6550696,7.5497006 5.3698159,7.5497006 q -0.2335772,0 -0.4216793,0.076481 -0.186035,0.074414 -0.3327959,0.2335772 -0.1426269,0.1550292 -0.223242,0.3927406 -0.078548,0.2356443 -0.078548,0.5457027 0,0.3245277 0.086816,0.558105 0.088883,0.2335772 0.2273761,0.3803382 0.1446939,0.1529621 0.3369301,0.2273761 0.1943032,0.072347 0.409277,0.072347 0.2955889,0 0.5539708,-0.1012853 0.258382,-0.1012857 0.483691,-0.3038572 h 0.028939 z m 3.0054988,0.223242 H 9.0099008 L 8.7081107,9.4761964 H 7.3769269 L 7.0751368,10.334024 H 6.6596586 L 7.7800027,7.2561787 H 8.3257054 Z M 8.5820203,9.1247969 8.0425188,7.6137793 7.5009502,9.1247969 Z"
       id="text1"
       aria-label="VCA"
       inkscape:label="VCA" />
    <path
       d="M 1.7529465,30.750023 H 0.74008779 V 30.488195 H 1.0759848 v -2.04122 H 0.74008779 V 28.185148 H 1.7529465 v 0.261827 h -0.335897 v 2.04122 h 0.335897 z m 2.1635213,0 H 3.5926286 v -1.095541 q 0,-0.132636 -0.015503,-0.248047 -0.015503,-0.117134 -0.056844,-0.18259 -0.043064,-0.07235 -0.1240235,-0.106798 -0.08096,-0.03617 -0.210151,-0.03617 -0.1326363,0 -0.2773304,0.06546 -0.1446941,0.06546 -0.2773303,0.167087 v 1.436606 H 2.3076072 v -1.924087 h 0.3238392 v 0.213596 q 0.1515843,-0.125746 0.3135039,-0.196371 0.1619196,-0.07062 0.3324519,-0.07062 0.3117813,0 0.4754235,0.187758 0.1636421,0.187757 0.1636421,0.54088 z M 6.233296,29.764725 q 0,0.234267 -0.067179,0.428915 -0.067179,0.192925 -0.1894804,0.327284 -0.1136882,0.127469 -0.2687176,0.198093 -0.1533068,0.0689 -0.3255617,0.0689 -0.1498618,0 -0.2721627,-0.03273 -0.1205785,-0.03273 -0.2463245,-0.101631 v 0.806153 H 4.5400305 v -2.633777 h 0.3238392 v 0.201538 q 0.1291911,-0.108521 0.2893882,-0.180868 0.1619196,-0.07407 0.3445098,-0.07407 0.3479548,0 0.5408803,0.26355 0.194648,0.261827 0.194648,0.728638 z m -0.3341745,0.0086 q 0,-0.347955 -0.1188558,-0.52021 -0.1188559,-0.172255 -0.3651804,-0.172255 -0.1395264,0 -0.2807755,0.06029 -0.141249,0.06029 -0.2704401,0.158475 v 1.090373 q 0.1378039,0.06201 0.2359892,0.08441 0.099908,0.02239 0.2256539,0.02239 0.2704401,0 0.4220244,-0.18259 0.1515843,-0.18259 0.1515843,-0.54088 z M 8.333083,30.750023 H 8.0092438 V 30.536427 Q 7.8456017,30.665618 7.69574,30.73452 q -0.1498618,0.0689 -0.3307294,0.0689 -0.3031686,0 -0.4719784,-0.184313 -0.1688098,-0.186035 -0.1688098,-0.544325 v -1.248848 h 0.3238392 v 1.095541 q 0,0.146417 0.01378,0.251492 0.01378,0.103353 0.058567,0.177423 0.046509,0.07579 0.1205785,0.110243 0.07407,0.03445 0.2153186,0.03445 0.125746,0 0.2738852,-0.06546 0.1498618,-0.06546 0.2790529,-0.167087 V 28.825936 H 8.333083 Z m 1.636421,-0.01723 q -0.091295,0.02412 -0.1998157,0.03962 -0.106798,0.0155 -0.1912029,0.0155 -0.2945559,0 -0.4478627,-0.158475 Q 8.9773158,30.47097 8.9773158,30.121293 V 29.098099 H 8.7585521 V 28.825936 H 8.9773158 V 28.272998 H 9.301155 v 0.552938 h 0.668349 v 0.272163 H 9.301155 v 0.876777 q 0,0.151584 0.00689,0.237712 0.00689,0.08441 0.048231,0.158474 0.037896,0.0689 0.1033529,0.101631 0.067179,0.03101 0.2032608,0.03101 0.079237,0 0.1653646,-0.02239 0.086127,-0.02411 0.1240236,-0.03962 h 0.017226 z"
       id="text2"
       style="font-size:3.52778px;font-family:Sans;-inkscape-font-specification:'Sans, Normal';stroke-width:0.264583"
       aria-label="Input"
       inkscape:label="Input" />
    <path
       d="m 4.6600812,48.130802 q -0.09474,0.04134 -0.1722549,0.07751 -0.075792,0.03617 -0.1998156,0.07579 -0.1050755,0.03273 -0.229099,0.05512 -0.122301,0.02412 -0.2704402,0.02412 -0.2790529,0 -0.5081519,-0.07751 -0.2273765,-0.07924 -0.3961863,-0.246324 -0.1653646,-0.163642 -0.2583823,-0.415134 -0.093018,-0.253215 -0.093018,-0.587389 0,-0.316949 0.089573,-0.566719 0.089573,-0.24977 0.2583824,-0.422025 0.1636421,-0.167087 0.3944636,-0.254937 0.2325441,-0.08785 0.5150421,-0.08785 0.2067059,0 0.4116892,0.04995 0.2067059,0.04995 0.458198,0.1757 v 0.404799 H 4.634243 q -0.2118735,-0.177422 -0.4203019,-0.258382 -0.2084284,-0.08096 -0.4461402,-0.08096 -0.194648,0 -0.3514,0.06373 -0.1550294,0.06201 -0.2773303,0.194648 -0.1188559,0.129191 -0.1860353,0.327285 -0.065457,0.19637 -0.065457,0.454753 0,0.27044 0.072347,0.465088 0.07407,0.194648 0.1894804,0.316949 0.1205784,0.127468 0.2807754,0.18948 0.1619196,0.06029 0.3410647,0.06029 0.2463245,0 0.4616431,-0.0844 0.2153186,-0.08441 0.4030764,-0.253214 h 0.024116 z m 2.5045861,-2.37884 -0.9336215,2.564875 H 5.7762929 L 4.8426714,45.751962 h 0.3651804 l 0.8044303,2.256539 0.8044303,-2.256539 z"
       id="text2-1"
       style="font-size:3.52778px;font-family:Sans;-inkscape-font-specification:'Sans, Normal';stroke-width:0.264583"
       aria-label="CV"
       inkscape:label="CV" />
    <path
       d="m 3.697847,65.609928 q -0.210151,0.09646 -0.4599205,0.168809 -0.2480471,0.07062 -0.4805912,0.07062 -0.2997235,0 -0.549493,-0.08268 -0.2497696,-0.08268 -0.4254696,-0.248048 -0.1774225,-0.167087 -0.2738853,-0.416856 -0.096463,-0.251492 -0.096463,-0.587389 0,-0.61495 0.3582901,-0.969795 0.3600128,-0.356568 0.9870205,-0.356568 0.2187637,0 0.4461402,0.0534 0.229099,0.05168 0.492649,0.177422 v 0.404799 h -0.031006 q -0.053399,-0.04134 -0.1550294,-0.10852 -0.1016304,-0.06718 -0.1998157,-0.111966 -0.1188559,-0.0534 -0.2704402,-0.08785 -0.1498617,-0.03617 -0.3410646,-0.03617 -0.4306372,0 -0.6821294,0.27733 -0.2497696,0.275608 -0.2497696,0.747586 0,0.497817 0.2618275,0.775147 0.2618274,0.275608 0.7131352,0.275608 0.1653647,0 0.3290068,-0.03273 0.1653647,-0.03273 0.2893882,-0.0844 V 64.808942 H 2.6729304 V 64.509219 H 3.697847 Z m 2.0653361,0.18948 H 5.4410665 v -0.204983 q -0.043064,0.02928 -0.1171334,0.08268 -0.072347,0.05168 -0.141249,0.08268 -0.08096,0.03962 -0.1860352,0.06546 -0.1050755,0.02756 -0.2463245,0.02756 -0.2601049,0 -0.4409725,-0.172255 -0.1808677,-0.172255 -0.1808677,-0.43925 0,-0.218764 0.093018,-0.353122 0.09474,-0.136082 0.2687176,-0.213596 0.1757,-0.07751 0.4220245,-0.105076 0.2463244,-0.02756 0.5288225,-0.04134 v -0.04995 q 0,-0.110243 -0.039619,-0.18259 -0.037896,-0.07235 -0.1102431,-0.113688 -0.068902,-0.03962 -0.1653647,-0.0534 -0.096463,-0.01378 -0.2015382,-0.01378 -0.1274686,0 -0.2842206,0.03445 -0.1567519,0.03273 -0.3238391,0.09646 h -0.017226 v -0.329007 q 0.09474,-0.02584 0.2738852,-0.05684 0.1791451,-0.03101 0.3531226,-0.03101 0.2032607,0 0.3531225,0.03445 0.1515843,0.03273 0.2618274,0.113688 0.1085206,0.07924 0.1653647,0.204984 0.056844,0.125746 0.056844,0.311781 z M 5.4410665,65.325707 v -0.535713 q -0.1481392,0.0086 -0.3496775,0.02584 -0.1998156,0.01722 -0.3169489,0.04995 -0.1395265,0.03962 -0.2256539,0.124024 -0.086127,0.08268 -0.086127,0.229099 0,0.165365 0.099908,0.24977 0.099908,0.08268 0.3048912,0.08268 0.1705323,0 0.3117813,-0.06546 0.141249,-0.06718 0.2618275,-0.160197 z M 6.7347006,63.553204 H 6.3695203 V 63.217307 H 6.7347006 Z M 6.71403,65.799408 H 6.3901909 V 63.875321 H 6.71403 Z m 2.2496488,0 H 8.6398396 v -1.095541 q 0,-0.132636 -0.015503,-0.248047 -0.015503,-0.117133 -0.056844,-0.18259 -0.043064,-0.07235 -0.1240235,-0.106798 -0.08096,-0.03617 -0.210151,-0.03617 -0.1326363,0 -0.2773304,0.06546 -0.1446941,0.06546 -0.2773303,0.167087 v 1.436606 H 7.3548182 v -1.924087 h 0.3238392 v 0.213596 q 0.1515843,-0.125746 0.3135039,-0.196371 0.1619195,-0.07062 0.3324519,-0.07062 0.3117813,0 0.4754235,0.187758 0.1636421,0.187758 0.1636421,0.54088 z"
       id="text2-1-9"
       style="font-size:3.52778px;font-family:Sans;-inkscape-font-specification:'Sans, Normal';stroke-width:0.264583"
       inkscape:label="Gain"
       aria-label="Gain" />
    <path
       d="M 3.608607,87.975647 H 1.985966 v -2.564875 h 0.3410647 v 2.261706 H 3.608607 Z M 5.5637,87.014465 q 0,0.470256 -0.2411569,0.742418 -0.2411568,0.272163 -0.6459558,0.272163 -0.4082441,0 -0.6494009,-0.272163 -0.2394343,-0.272162 -0.2394343,-0.742418 0,-0.470256 0.2394343,-0.742419 0.2411568,-0.273885 0.6494009,-0.273885 0.404799,0 0.6459558,0.273885 Q 5.5637,86.544209 5.5637,87.014465 Z m -0.3341745,0 q 0,-0.373793 -0.1464167,-0.554661 -0.1464166,-0.18259 -0.4065215,-0.18259 -0.26355,0 -0.4099666,0.18259 -0.1446941,0.180868 -0.1446941,0.554661 0,0.361735 0.1464166,0.549493 0.1464167,0.186035 0.4082441,0.186035 0.2583823,0 0.404799,-0.184313 0.1481392,-0.186035 0.1481392,-0.551215 z m 2.3960656,0.742418 q 0,0.489204 -0.2222088,0.718303 -0.2222088,0.229099 -0.6838519,0.229099 -0.1533068,0 -0.2997235,-0.02239 -0.1446941,-0.02067 -0.2859431,-0.06029 v -0.33073 h 0.017225 q 0.079237,0.03101 0.2514921,0.07579 0.1722549,0.04651 0.3445098,0.04651 0.1653647,0 0.2738853,-0.03962 0.1085206,-0.03962 0.1688098,-0.110243 0.060289,-0.06718 0.086127,-0.16192 0.025838,-0.09474 0.025838,-0.211873 v -0.1757 q -0.1464166,0.117133 -0.2807754,0.1757 -0.1326363,0.05684 -0.3393421,0.05684 -0.3445098,0 -0.5477706,-0.248047 -0.2015382,-0.24977 -0.2015382,-0.7028 0,-0.248047 0.068902,-0.427192 0.070625,-0.180868 0.1912029,-0.311782 0.1119657,-0.122301 0.2721627,-0.18948 0.160197,-0.0689 0.3186715,-0.0689 0.1670873,0 0.279053,0.03445 0.1136882,0.03273 0.2394342,0.10163 l 0.020671,-0.08268 H 7.6255911 Z M 7.3017519,87.446824 v -1.049032 q -0.1291911,-0.05857 -0.2411568,-0.08268 -0.1102431,-0.02584 -0.2204863,-0.02584 -0.266995,0 -0.4203019,0.179145 -0.1533068,0.179145 -0.1533068,0.520209 0,0.32384 0.1136882,0.490927 0.1136882,0.167087 0.3772382,0.167087 0.141249,0 0.282498,-0.0534 0.1429716,-0.05512 0.2618274,-0.146417 z"
       id="text5"
       style="font-size:3.52778px;font-family:Sans;-inkscape-font-specification:'Sans, Normal';stroke-width:0.264583"
       aria-label="Log"
       inkscape:label="Log" />
    <path
       d="m 4.2682113,110.95991 q 0.1567519,0.17226 0.2394342,0.42203 0.084405,0.24977 0.084405,0.56672 0,0.31694 -0.086127,0.56844 -0.084405,0.24977 -0.2377117,0.41685 -0.1584745,0.17398 -0.3755157,0.26183 -0.2153186,0.0879 -0.492649,0.0879 -0.2704401,0 -0.4926489,-0.0896 -0.2204863,-0.0896 -0.3755157,-0.26011 -0.1550294,-0.17053 -0.2394343,-0.41858 -0.082682,-0.24804 -0.082682,-0.56671 0,-0.31351 0.082682,-0.56156 0.082682,-0.24976 0.2411569,-0.42719 0.1515843,-0.16881 0.3755156,-0.25838 0.2256539,-0.0896 0.4909264,-0.0896 0.2756079,0 0.4943716,0.0913 0.2204862,0.0896 0.3737931,0.25666 z m -0.031006,0.98875 q 0,-0.49954 -0.2239314,-0.76998 -0.2239313,-0.27217 -0.6115048,-0.27217 -0.3910186,0 -0.61495,0.27217 -0.2222088,0.27044 -0.2222088,0.76998 0,0.5047 0.2273765,0.77342 0.2273764,0.267 0.6097823,0.267 0.3824058,0 0.6080597,-0.267 0.2273765,-0.26872 0.2273765,-0.77342 z m 2.4649673,1.28157 H 6.3783335 v -0.21359 q -0.1636421,0.12919 -0.3135039,0.19809 -0.1498617,0.0689 -0.3307294,0.0689 -0.3031686,0 -0.4719783,-0.18431 -0.1688098,-0.18604 -0.1688098,-0.54433 v -1.24884 h 0.3238391 v 1.09554 q 0,0.14641 0.01378,0.25149 0.01378,0.10335 0.058567,0.17742 0.046509,0.0758 0.1205784,0.11024 0.07407,0.0345 0.2153186,0.0345 0.1257461,0 0.2738853,-0.0655 0.1498617,-0.0655 0.2790529,-0.16709 v -1.4366 h 0.3238392 z m 1.6364214,-0.0172 q -0.091295,0.0241 -0.1998157,0.0396 -0.106798,0.0155 -0.1912029,0.0155 -0.2945558,0 -0.4478627,-0.15848 Q 7.346406,112.95118 7.346406,112.6015 v -1.02319 H 7.1276423 v -0.27216 H 7.346406 v -0.55294 h 0.3238391 v 0.55294 h 0.668349 v 0.27216 h -0.668349 v 0.87678 q 0,0.15158 0.00689,0.23771 0.00689,0.0844 0.048231,0.15847 0.037896,0.0689 0.1033529,0.10163 0.067179,0.031 0.2032608,0.031 0.079237,0 0.1653647,-0.0224 0.086127,-0.0241 0.1240235,-0.0396 h 0.017226 z"
       id="text5-8"
       style="font-size:3.52778px;font-family:Sans;-inkscape-font-specification:'Sans, Normal';fill:#ffffff;stroke-width:0.264583"
       aria-label="Out"
       inkscape:label="Out" />
    <path
       d="m 4.2559405,75.325279 h -1.622641 v -2.564875 h 0.3410647 v 2.261707 H 4.2559405 Z M 4.9191218,73.079076 H 4.5539415 v -0.335897 h 0.3651803 z m -0.020671,2.246203 H 4.574612 v -1.924087 h 0.3238392 z m 2.2496489,0 H 6.8242609 v -1.095541 q 0,-0.132636 -0.015503,-0.248047 -0.015503,-0.117133 -0.056844,-0.18259 -0.043064,-0.07235 -0.1240235,-0.106798 -0.08096,-0.03617 -0.210151,-0.03617 -0.1326363,0 -0.2773304,0.06546 -0.1446941,0.06546 -0.2773303,0.167087 v 1.436606 H 5.5392395 v -1.924087 h 0.3238392 v 0.213596 q 0.1515843,-0.125746 0.3135039,-0.19637 0.1619195,-0.07063 0.3324519,-0.07063 0.3117813,0 0.4754235,0.187758 0.1636421,0.187758 0.1636421,0.54088 z"
       id="text5-1"
       style="font-size:3.52778px;font-family:Sans;-inkscape-font-specification:'Sans, Normal';stroke-width:0.264583"
       aria-label="Lin"
       inkscape:label="Lin" />
  </g>
  <g
     inkscape:groupmode="layer"
     id="layer2"
     inkscape:label="components"
     style="display:none">
    <ellipse
       style="display:none;fill:#0000ff;stroke-width:0.170307"
       id="path2"
       cx="5.1491008"
       cy="105.99947"
       rx="3.9461007"
       ry="3.523304"
       inkscape:label="out" />
    <ellipse
       style="display:none;fill:#00ff00;stroke-width:0.170307"
       id="ellipse3-9-8"
       cx="5.1491008"
       cy="41.045158"
       rx="3.9461007"
       ry="3.523304"
       inkscape:label="cv" />
    <ellipse
       style="display:none;fill:#ff0000;stroke-width:0.170307"
       id="ellipse3-9-8-9-5-3"
       cx="4.7649183"
       cy="57.388454"
       rx="3.9461007"
       ry="3.523304"
       inkscape:label="gain" />
    <ellipse
       style="display:none;fill:#ff0000;stroke-width:0.170307"
       id="ellipse3-9-8-9-5-3-3"
       cx="4.7398505"
       cy="80.168854"
       rx="3.9461007"
       ry="3.523304"
       inkscape:label="linlog" />
    <ellipse
       style="display:none;fill:#00ff00;stroke-width:0.170307"
       id="ellipse3-9-8-8"
       cx="5.1491222"
       cy="23.631573"
       rx="3.9461007"
       ry="3.523304"
       inkscape:label="input" />
  </g>
</svg>
