<?xml version="1.0" encoding="UTF-8" standalone="no"?>
<!-- Created with Inkscape (http://www.inkscape.org/) -->

<svg
   width="10.16mm"
   height="128.5mm"
   viewBox="0 0 10.16 128.5"
   version="1.1"
   id="svg1"
   inkscape:version="1.3 (0e150ed, 2023-07-21)"
   sodipodi:docname="SimpleNoise.svg"
   xmlns:inkscape="http://www.inkscape.org/namespaces/inkscape"
   xmlns:sodipodi="http://sodipodi.sourceforge.net/DTD/sodipodi-0.dtd"
   xmlns="http://www.w3.org/2000/svg"
   xmlns:svg="http://www.w3.org/2000/svg">
  <sodipodi:namedview
     id="namedview1"
     pagecolor="#505050"
     bordercolor="#eeeeee"
     borderopacity="1"
     inkscape:showpageshadow="0"
     inkscape:pageopacity="0"
     inkscape:pagecheckerboard="0"
     inkscape:deskcolor="#d1d1d1"
     inkscape:document-units="mm"
     showgrid="false"
     inkscape:zoom="3.6734283"
     inkscape:cx="8.4389832"
     inkscape:cy="414.05463"
     inkscape:window-width="1376"
     inkscape:window-height="813"
     inkscape:window-x="117"
     inkscape:window-y="268"
     inkscape:window-maximized="0"
     inkscape:current-layer="layer2">
    <inkscape:grid
       id="grid2"
       units="px"
       originx="0"
       originy="0"
       spacingx="0.26458334"
       spacingy="0.26458334"
       empcolor="#0099e5"
       empopacity="0.30196078"
       color="#0099e5"
       opacity="0.14901961"
       empspacing="5"
       dotted="false"
       gridanglex="30"
       gridanglez="30"
       visible="false" />
  </sodipodi:namedview>
  <defs
     id="defs1" />
  <g
     inkscape:label="Layer 1"
     inkscape:groupmode="layer"
     id="layer1"
     style="display:inline">
    <rect
       style="display:inline;vector-effect:none;fill:#e6e6e6;fill-opacity:1;fill-rule:evenodd;stroke:none;stroke-width:0.374906;stroke-linecap:butt;stroke-linejoin:miter;stroke-miterlimit:4;stroke-dasharray:none;stroke-dashoffset:0;stroke-opacity:1;paint-order:normal"
       id="rect420"
       width="10.16"
       height="128.5"
       x="3.2981237e-07"
       y="0" />
    <rect
       style="display:inline;fill:#800000;stroke-width:0.264583"
       id="rect8"
       width="10.017269"
       height="10.017269"
       x="0.26555431"
       y="97.985878" />
    <path
       d="M 2.5125107,9.507863 H 2.0904862 L 0.87436671,7.213428 V 9.507863 H 0.55569517 V 6.9429878 H 1.0845177 L 2.1938391,9.0376072 V 6.9429878 H 2.5125107 Z M 4.8086683,8.5466808 q 0,0.4702558 -0.2411568,0.7424185 -0.2411569,0.2721628 -0.6459559,0.2721628 -0.408244,0 -0.6494009,-0.2721628 -0.2394343,-0.2721627 -0.2394343,-0.7424185 0,-0.4702559 0.2394343,-0.7424186 0.2411569,-0.2738852 0.6494009,-0.2738852 0.404799,0 0.6459559,0.2738852 0.2411568,0.2721627 0.2411568,0.7424186 z m -0.3341745,0 q 0,-0.3737931 -0.1464166,-0.5546607 -0.1464167,-0.1825902 -0.4065216,-0.1825902 -0.2635499,0 -0.4099666,0.1825902 -0.1446941,0.1808676 -0.1446941,0.5546607 0,0.3617352 0.1464167,0.5494931 0.1464166,0.1860352 0.408244,0.1860352 0.2583824,0 0.404799,-0.1843127 Q 4.4744938,8.9118611 4.4744938,8.5466808 Z M 5.657885,7.2616593 H 5.2927046 V 6.9257623 H 5.657885 Z M 5.6372144,9.507863 H 5.3133752 V 7.583776 H 5.6372144 Z M 7.6525965,8.9532023 q 0,0.26355 -0.2187637,0.4323598 -0.2170412,0.1688098 -0.5942794,0.1688098 -0.213596,0 -0.3927411,-0.049954 Q 6.2693898,9.4527415 6.1488114,9.3924523 V 9.0289945 h 0.017225 q 0.1533069,0.1154107 0.3410647,0.1843127 0.1877578,0.067179 0.3600127,0.067179 0.2135961,0 0.3341745,-0.068902 0.1205784,-0.068902 0.1205784,-0.2170411 0,-0.1136882 -0.065457,-0.1722549 Q 7.1909534,8.7637219 7.0049181,8.7223808 6.9360162,8.7068778 6.8240505,8.6862072 6.7138074,8.6655367 6.6225123,8.641421 6.3692976,8.5742416 6.2624996,8.4450504 6.1574241,8.3141367 6.1574241,8.1246563 q 0,-0.1188559 0.048231,-0.2239313 0.049954,-0.1050755 0.1498617,-0.1877579 0.096463,-0.08096 0.244602,-0.1274686 0.1498617,-0.048231 0.3341744,-0.048231 0.1722549,0 0.3479549,0.043064 0.1774225,0.041341 0.2945559,0.1016304 V 8.0281936 H 7.5595789 Q 7.4355553,7.9368985 7.2581328,7.8748867 7.0807103,7.8111524 6.9101779,7.8111524 q -0.1774225,0 -0.2997235,0.068902 -0.1223009,0.067179 -0.1223009,0.2015382 0,0.1188559 0.07407,0.1791451 0.072347,0.060289 0.2342666,0.098185 0.089573,0.02067 0.1998157,0.041341 0.1119657,0.020671 0.1860353,0.037896 0.2256539,0.051676 0.3479548,0.1774225 0.122301,0.1274687 0.1223006,0.3376201 z M 9.7265455,8.5794092 H 8.3088878 q 0,0.1774225 0.053399,0.3100588 0.053399,0.1309137 0.1464166,0.2153186 0.089573,0.082682 0.2118735,0.1240235 0.1240235,0.041341 0.2721627,0.041341 0.1963706,0 0.3944637,-0.077515 0.1998157,-0.079237 0.2842206,-0.1550294 h 0.017225 V 9.3907292 Q 9.5250067,9.4596312 9.3544744,9.50614 9.1839421,9.552649 8.9961842,9.552649 8.5173157,9.552649 8.248598,9.2942667 7.9798804,9.0341618 7.9798804,8.5570158 q 0,-0.4719784 0.2566598,-0.7493088 0.2583828,-0.27733 0.6786847,-0.27733 0.3892961,0 0.5994471,0.2273764 0.2118735,0.2273765 0.2118735,0.6459558 z M 9.411319,8.3313622 Q 9.4095965,8.0764249 9.2821279,7.9368985 9.1563818,7.797372 8.8979995,7.797372 q -0.2601049,0 -0.4151343,0.1533069 -0.1533069,0.1533068 -0.1739774,0.3806833 z"
       id="text1"
       style="font-size:3.52778px;font-family:Sans;-inkscape-font-specification:'Sans, Normal';display:inline;stroke-width:0.264583"
       aria-label="Noise"
       inkscape:label="Noise" />
    <path
       d="m 4.0590964,109.36699 q 0.1567515,0.17226 0.2394336,0.42203 0.084405,0.24977 0.084405,0.56671 0,0.31695 -0.086127,0.56844 -0.084405,0.24977 -0.237711,0.41686 -0.1584741,0.17398 -0.3755146,0.26183 -0.215318,0.0878 -0.4926476,0.0878 -0.2704394,0 -0.4926476,-0.0896 -0.2204856,-0.0896 -0.3755145,-0.2601 -0.155029,-0.17053 -0.2394336,-0.41858 -0.082682,-0.24805 -0.082682,-0.56672 0,-0.3135 0.082682,-0.56155 0.082682,-0.24976 0.2411561,-0.42719 0.1515839,-0.16881 0.3755146,-0.25838 0.2256533,-0.0896 0.490925,-0.0896 0.2756071,0 0.4943701,0.0913 0.2204857,0.0896 0.3737921,0.25666 z m -0.031006,0.98874 q 0,-0.49953 -0.2239307,-0.76997 -0.2239307,-0.27217 -0.6115031,-0.27217 -0.3910175,0 -0.6149482,0.27217 -0.2222082,0.27044 -0.2222082,0.76997 0,0.50471 0.2273758,0.77343 0.2273758,0.26699 0.6097806,0.26699 0.3824047,0 0.608058,-0.26699 0.2273758,-0.26872 0.2273758,-0.77343 z m 2.4649603,1.28158 h -0.323838 v -0.2136 q -0.1636417,0.12919 -0.313503,0.19809 -0.1498614,0.0689 -0.3307285,0.0689 -0.3031677,0 -0.471977,-0.18432 -0.1688093,-0.18603 -0.1688093,-0.54432 v -1.24885 h 0.3238382 v 1.09554 q 0,0.14642 0.01378,0.25149 0.01378,0.10336 0.058567,0.17743 0.046509,0.0758 0.120578,0.11024 0.074069,0.0344 0.215318,0.0344 0.1257458,0 0.2738845,-0.0655 0.1498614,-0.0654 0.2790522,-0.16708 v -1.43661 H 6.493051 Z m 1.6364167,-0.0172 q -0.091295,0.0241 -0.1998151,0.0396 -0.1067977,0.0155 -0.1912024,0.0155 -0.294555,0 -0.4478614,-0.15847 -0.1533064,-0.15848 -0.1533064,-0.50815 V 109.9854 H 6.9185192 v -0.27217 h 0.2187631 v -0.55293 h 0.3238382 v 0.55293 h 0.6683471 v 0.27217 H 7.4611205 v 0.87677 q 0,0.15159 0.00689,0.23771 0.00689,0.0844 0.048231,0.15848 0.037896,0.0689 0.1033527,0.10163 0.067179,0.031 0.2032602,0.031 0.079237,0 0.1653642,-0.0224 0.086127,-0.0241 0.1240231,-0.0396 h 0.017226 z"
       id="text2"
       style="font-size:3.52777px;font-family:Sans;-inkscape-font-specification:'Sans, Normal';stroke-width:0.264583"
       inkscape:label="Out"
       aria-label="Out" />
    <path
       id="ellipse3-9"
       style="fill:#ddafe9;stroke-width:0.170307"
       inkscape:label="noise out"
       d="m 9.0952015,103.12351 a 3.9461007,3.523304 0 0 1 -3.9461007,3.52331 3.9461007,3.523304 0 0 1 -3.9461007,-3.52331 3.9461007,3.523304 0 0 1 3.9461007,-3.523302 3.9461007,3.523304 0 0 1 3.9461007,3.523302 z" />
  </g>
  <g
     inkscape:groupmode="layer"
     id="layer2"
     inkscape:label="components">
    <circle
       style="fill:#0000ff;stroke-width:0.264583"
       id="path1"
       cx="5.1858912"
       cy="103.06959"
       r="1.9447093"
       inkscape:transform-center-x="-0.9363415"
       inkscape:transform-center-y="8.4270735"
       inkscape:label="noiseOut" />
  </g>
</svg>
